<?xml version="1.0" encoding="UTF-8"?>
<svg id="Layer_2" data-name="Layer 2" xmlns="http://www.w3.org/2000/svg" viewBox="0 0 85.2 84.57">
  <defs>
    <style>
      .cls-1 {
        fill: #18181B;
      }

      .cls-2 {
        fill: #fdfdfd;
      }
    </style>
  </defs>
  <g id="Layer_1-2" data-name="Layer 1">
    <g>
      <path class="cls-1"  d="M.29,47.05c-.46-2.87-.25-5.79-.2-8.69,.03-1.98,.5-3.93,.93-5.87,.51-2.3,1.18-4.56,1.9-6.79,.46-1.41,1.28-2.71,1.99-4.03,1.35-2.52,3.34-4.6,4.97-6.93,1.49-2.12,3.11-4.17,5.57-5.3,.88-.4,1.41-1.22,2.17-1.79,1.46-1.1,2.84-2.32,4.52-3.11,1.58-.74,3.23-1.33,4.86-1.96,3.16-1.21,6.43-1.72,9.78-1.93C39.76,.47,42.71,.02,45.69,0c3.52-.02,6.92,.68,10.07,2.1,2.6,1.17,5.37,1.99,7.76,3.63,1.88,1.29,3.77,2.58,5.71,3.78,2.11,1.31,3.53,3.27,5.12,5.08,.68,.77,1.56,1.3,2.16,2.18,.92,1.35,2.11,2.48,2.85,3.99,.85,1.75,2.06,3.32,2.61,5.23,.79,2.78,1.81,5.49,2.34,8.35,.24,1.29,.81,2.54,.87,3.83,.08,1.71-.2,3.43-.33,5.14-.11,1.48-.25,2.96-.34,4.44-.05,.89-.35,1.68-.67,2.5-.41,1.07-.54,2.24-.89,3.34-1.18,3.72-2.74,7.27-4.85,10.57-1.35,2.12-3.19,3.87-4.52,6-.89,1.43-2.06,2.66-3.25,3.84-1.6,1.58-3.59,2.65-5.43,3.89-1.65,1.11-3.37,2.16-5.16,3.01-1.45,.69-3.04,1.09-4.63,1.45-3.32,.76-6.67,1.32-10.03,1.81-1.12,.16-2.23,.44-3.37,.39-2.51-.1-5-.5-7.5-.76-1.71-.18-3.38-.51-5.02-.99-.83-.25-1.55-.84-2.34-1.24-1.94-.98-3.91-1.9-5.82-2.92-.97-.52-1.95-1.1-2.76-1.83-1.46-1.34-2.9-2.73-4.45-3.93-2.28-1.76-3.77-4.14-5.67-6.19-1.33-1.44-2-3.34-3.08-4.96-1.77-2.66-2.57-5.71-3.49-8.71-.47-1.53-.79-3.09-1.1-4.66-.09-.43-.26-.84-.19-1.32Zm40.66,30.4c1.96,0,4.38-.35,6.81-.59,2.48-.25,4.68-1.19,6.97-1.92,1.93-.62,3.76-1.49,5.53-2.51,1.02-.59,2.32-.76,3.22-1.47,2.61-2.06,4.88-4.48,6.9-7.12,1.81-2.37,3.07-5.06,4.48-7.66,.97-1.78,1.49-3.76,2.17-5.67,.85-2.4,1.28-4.86,1.65-7.36,.24-1.62-.32-3.13-.56-4.67-.35-2.27-.62-4.58-1.64-6.7-1.12-2.31-1.81-4.81-3.27-6.98-1.02-1.52-2.29-2.85-3.27-4.37-1.19-1.85-2.82-3.23-4.39-4.66-1.63-1.48-3.48-2.73-5.14-4.18-1.05-.92-2.16-1.81-3.4-2.33-1.5-.62-2.99-1.32-4.6-1.7-2.22-.53-4.4-1.26-6.72-1.26-2.84,0-5.68-.38-8.5,.43-2.05,.59-4.18,.9-6.25,1.44-2.49,.65-4.6,2.06-6.74,3.43-1.76,1.13-3.53,2.24-4.96,3.78-1.3,1.4-3,2.4-3.88,4.24-.52,1.1-1.31,2.11-2.15,3.01-1.44,1.55-2.7,3.22-3.34,5.23-.91,2.85-1.69,5.75-2.4,8.66-.39,1.59-.72,3.24-.75,4.88-.05,2.23,.29,4.46,.75,6.65,.41,1.95,.94,3.88,1.55,5.78,.29,.92,.98,1.71,1.29,2.63,1.08,3.17,2.97,5.85,5.11,8.34,1.68,1.96,3.77,3.51,5.74,5.17,.83,.7,1.65,1.44,2.59,1.97,2.16,1.21,4.34,2.39,6.6,3.38,.86,.37,1.76,.75,2.64,1.1,2.44,.94,4.93,1.01,7.96,1.04Z"/>
      <path class="cls-2" d="M40.95,77.45c-3.03-.03-5.52-.1-7.96-1.04-.88-.34-1.79-.72-2.64-1.1-2.26-.99-4.44-2.17-6.6-3.38-.94-.52-1.76-1.27-2.59-1.97-1.97-1.66-4.06-3.22-5.74-5.17-2.14-2.49-4.03-5.17-5.11-8.34-.31-.92-1-1.71-1.29-2.63-.6-1.9-1.14-3.83-1.55-5.78-.46-2.18-.79-4.42-.75-6.65,.03-1.63,.36-3.28,.75-4.88,.72-2.91,1.5-5.81,2.4-8.66,.64-2.01,1.9-3.68,3.34-5.23,.83-.9,1.62-1.91,2.15-3.01,.87-1.84,2.58-2.84,3.88-4.24,1.43-1.54,3.2-2.65,4.96-3.78,2.14-1.38,4.25-2.79,6.74-3.43,2.07-.54,4.2-.84,6.25-1.44,2.82-.82,5.66-.44,8.5-.43,2.31,0,4.49,.73,6.72,1.26,1.61,.39,3.1,1.08,4.6,1.7,1.24,.52,2.35,1.41,3.4,2.33,1.66,1.45,3.5,2.7,5.14,4.18,1.58,1.43,3.2,2.81,4.39,4.66,.98,1.52,2.25,2.85,3.27,4.37,1.46,2.16,2.15,4.67,3.27,6.98,1.02,2.11,1.29,4.42,1.64,6.7,.24,1.55,.8,3.05,.56,4.67-.37,2.5-.79,4.96-1.65,7.36-.68,1.91-1.2,3.89-2.17,5.67-1.41,2.6-2.67,5.29-4.48,7.66-2.02,2.64-4.29,5.07-6.9,7.12-.9,.71-2.2,.88-3.22,1.47-1.76,1.02-3.6,1.89-5.53,2.51-2.29,.73-4.49,1.68-6.97,1.92-2.43,.24-4.85,.58-6.81,.59Z"/>
    </g>
  </g>
</svg>