<?xml version="1.0" encoding="utf-8"?>
<!-- Generator: Adobe Illustrator 27.0.0, SVG Export Plug-In . SVG Version: 6.00 Build 0)  -->
<svg version="1.1" id="Layer_2_00000025436642325593891000000015456809626429802413_"
	 xmlns="http://www.w3.org/2000/svg" xmlns:xlink="http://www.w3.org/1999/xlink" x="0px" y="0px" viewBox="0 0 8.5 12.3"
	 style="enable-background:new 0 0 8.5 12.3;" xml:space="preserve">
<style type="text/css">
	.st0{display:none;fill:#18181B;}
	.st1{fill:#18181B;}
</style>
<g id="Layer_1-2">
	<path class="st0" d="M8.5,7c0,1.2-0.2,2.2-0.7,3.2c-0.6,1.2-1.6,1.9-2.9,2.1c-1.4,0.2-2.6-0.2-3.5-1.2c-0.4-0.4-0.6-1-0.8-1.5
		C0.2,8.4-0.1,7.2,0,6c0.1-1.4,0.3-2.7,0.9-4c0.4-1,1.2-1.6,2.2-1.9C4.2-0.2,5.1,0,6,0.6c0.1,0.1,0.2,0.1,0.2,0.2
		C6.5,1.1,6.8,1.3,7,1.5c0.3,0.3,0.5,0.7,0.6,1.1c0.2,0.7,0.4,1.3,0.6,2C8.3,5,8.4,5.3,8.4,5.7C8.4,6.1,8.5,6.6,8.5,7L8.5,7z"/>
</g>
<path class="st1" d="M8.1,4C7.7,3.7,7,3.6,6.6,3.9C6.4,4.1,6.2,4.3,6.1,4.4C5.9,4.5,5.8,4.7,5.6,4.8C5,5.1,4.4,5.5,3.9,5.6
	c-0.4,0-0.7-0.1-1-0.3C2.4,4.9,2,4.6,1.6,4.2c-0.1,0-0.1-0.1-0.2-0.1c0,0-0.1-0.1-0.1-0.1c0,0-0.1,0-0.1,0C1,4,0.9,4,0.8,4
	c0,0,0,0-0.1,0C0.7,4,0.6,4,0.6,4c-0.1,0-0.1,0.1-0.2,0.1c0,0,0,0,0,0c0,0-0.1,0.1-0.1,0.1c0,0-0.1,0.1-0.1,0.1c0,0,0,0,0,0
	c0,0,0,0.1,0,0.1C0,4.7,0,4.9,0,5.2c0,0,0,0,0,0c0,1,0,2,0.9,2.8c0.6,0.5,1.4,0.8,2.2,1c0,0,0.1,0,0.1,0c0,0,0,0,0,0
	c0.1,0,0.2,0,0.3,0c0.2,0,0.4,0,0.5,0c1.2,0,2.8-0.3,3.5-1C7.7,8,7.7,7.9,7.8,7.8C7.9,7.8,8,7.7,8,7.6c0-0.1,0-0.2,0.1-0.3
	c0.3-0.6,0.4-1.3,0.4-2C8.5,4.9,8.5,4.4,8.1,4z"/>
</svg>
