<?xml version="1.0" encoding="utf-8"?>
<!-- Generator: Adobe Illustrator 27.0.0, SVG Export Plug-In . SVG Version: 6.00 Build 0)  -->
<svg version="1.1" id="Layer_2_00000014600805415361950290000010177431763861341075_"
	 xmlns="http://www.w3.org/2000/svg" xmlns:xlink="http://www.w3.org/1999/xlink" x="0px" y="0px" viewBox="0 0 25.6 18.1"
	 style="enable-background:new 0 0 25.6 18.1;" xml:space="preserve">
<style type="text/css">
	.st0{display:none;}
	.st1{display:inline;fill:#18181B;}
</style>
<g id="Layer_1-2" class="st0">
	<path class="st1" d="M24.4,8.7c0,1.2-0.2,2.2-0.7,3.2c-0.6,1.2-1.6,1.9-2.9,2.1c-1.4,0.2-2.6-0.2-3.5-1.2c-0.4-0.4-0.6-1-0.8-1.5
		c-0.4-1.2-0.7-2.4-0.6-3.6c0.1-1.4,0.3-2.7,0.9-4c0.4-1,1.2-1.6,2.2-1.9c1.1-0.3,2-0.1,2.9,0.5c0.1,0.1,0.2,0.1,0.2,0.2
		c0.3,0.3,0.6,0.5,0.8,0.7c0.3,0.3,0.5,0.7,0.6,1.1c0.2,0.7,0.4,1.3,0.6,2c0.1,0.4,0.2,0.7,0.2,1.1S24.4,8.3,24.4,8.7L24.4,8.7z"/>
</g>
<path d="M2.3,0.3C3,0.2,3.5,0.6,4,1.1c1.4,1.1,2.7,2.4,4.1,3.4c1.3,0.9,2.5,2,3.8,2.9c0.6,0.5,0.6,0.9,0,1.4c-0.4,0.3-0.7,0.6-0.9,1
	c-3,2.3-6.1,4.7-8.7,7.7C2,18,1.5,18.1,1,17.8c-0.6-0.3-0.8-0.8-0.6-1.4c0-0.3,0.1-0.5,0.3-0.8c1.4-2.2,3.3-4,5.5-5.7
	c0,0,0.2,0,0.2-0.2c0,0-0.1,0-0.3,0C5,10,4,10.3,2.9,10.6c-0.4,0-0.8,0-1-0.5c-0.3-0.4-0.3-0.7,0-1.2C2,8.5,2.3,8.3,2.8,8
	C3.7,7.2,5,6.9,6.2,6.6h0.2L6.2,6.5C5.1,5.5,4,4.4,3,3.3C2.5,2.6,1.7,2,1.7,0.9C1.7,0.3,1.7,0.3,2.3,0.3z M6.5,9.5H6.3
	C6.3,9.5,6.3,9.5,6.5,9.5C6.5,9.7,6.5,9.5,6.5,9.5L6.5,9.5z"/>
</svg>
