<?xml version="1.0" encoding="UTF-8"?>
<svg id="Layer_2" data-name="Layer 2" xmlns="http://www.w3.org/2000/svg" version="1.1" viewBox="0 0 19.7 28.5">
  <defs>
    <style>
      .cls-1 {
        fill: #18181b;
      }

      .cls-1, .cls-2 {
        stroke-width: 0px;
      }

      .cls-2 {
        fill: #000;
      }

      .cls-3 {
        display: none;
      }
    </style>
  </defs>
  <g id="Layer_1-2" data-name="Layer 1-2" class="cls-3">
    <path class="cls-1" d="M8.5,14.8c0,1.2-.2,2.2-.7,3.2s-1.6,1.9-2.9,2.1c-1.4.2-2.6-.2-3.5-1.2-.4-.4-.6-1-.8-1.5-.4-1.2-.7-2.4-.6-3.6.1-1.4.3-2.7.9-4,.4-1,1.2-1.6,2.2-1.9,1.1-.3,2-.1,2.9.5,0,0,.2,0,.2.2.3.3.6.5.8.7.3.3.5.7.6,1.1.2.7.4,1.3.6,2,.1.4.2.7.2,1.1s.1.9.1,1.3h0Z"/>
  </g>
  <path class="cls-2" d="M16.8,1.6c0,1.7-1.2,2.6-2,3.7-1.6,1.7-3.3,3.4-5,5l-.3.2h.3c1.9.5,3.9.9,5.3,2.2.8.5,1.2.8,1.4,1.4.5.8.5,1.2,0,1.9-.3.8-.9.8-1.6.8-1.7-.5-3.3-.9-5-1.4h-.5c0,.3.3.3.3.3,3.4,2.6,6.4,5.4,8.6,8.8.3.5.5.8.5,1.2.3.9,0,1.7-.9,2.2-.8.5-1.6.3-2-.5-4-4.6-8.9-8.4-13.5-11.9-.3-.6-.8-1.1-1.4-1.5C0,13,0,12.4.9,11.6c2-1.4,3.9-3.1,5.9-4.5,2.2-1.5,4.2-3.6,6.4-5.3.8-.8,1.6-1.4,2.6-1.2q.9,0,.9.9ZM9.3,14.9s0,.3,0,0h.3-.3Z"/>
</svg>