<?xml version="1.0" encoding="utf-8"?>
<!-- Generator: Adobe Illustrator 27.0.0, SVG Export Plug-In . SVG Version: 6.00 Build 0)  -->
<svg version="1.1" id="Layer_2_00000014600805415361950290000010177431763861341075_"
	 xmlns="http://www.w3.org/2000/svg" xmlns:xlink="http://www.w3.org/1999/xlink" x="0px" y="0px" viewBox="0 0 12.9 18.1"
	 style="enable-background:new 0 0 12.9 18.1;" xml:space="preserve">
<style type="text/css">
	.st0{display:none;}
	.st1{display:inline;fill:#18181B;}
</style>
<g id="Layer_1-2" class="st0">
	<path class="st1" d="M8.5,8.7c0,1.2-0.2,2.2-0.7,3.2c-0.6,1.2-1.6,1.9-2.9,2.1c-1.4,0.2-2.6-0.2-3.5-1.2c-0.4-0.4-0.6-1-0.8-1.5
		C0.2,10.1-0.1,8.9,0,7.7c0.1-1.4,0.3-2.7,0.9-4c0.4-1,1.2-1.6,2.2-1.9c1.1-0.3,2-0.1,2.9,0.5c0.1,0.1,0.2,0.1,0.2,0.2
		C6.5,2.8,6.8,3,7,3.2c0.3,0.3,0.5,0.7,0.6,1.1C7.8,5,8,5.6,8.2,6.3C8.3,6.7,8.4,7,8.4,7.4S8.5,8.3,8.5,8.7L8.5,8.7z"/>
</g>
<path d="M10.8,0.8c0,1.1-0.8,1.7-1.3,2.4C8.5,4.3,7.4,5.4,6.3,6.4L6.1,6.5h0.2c1.2,0.3,2.5,0.6,3.4,1.4c0.5,0.3,0.8,0.5,0.9,0.9
	c0.3,0.5,0.3,0.8,0,1.2c-0.2,0.5-0.6,0.5-1,0.5c-1.1-0.3-2.1-0.6-3.2-0.9c-0.2,0-0.3,0-0.3,0c0,0.2,0.2,0.2,0.2,0.2
	c2.2,1.7,4.1,3.5,5.5,5.7c0.2,0.3,0.3,0.5,0.3,0.8c0.2,0.6,0,1.1-0.6,1.4c-0.5,0.3-1,0.2-1.3-0.3C7.6,14.4,4.5,12,1.5,9.7
	C1.3,9.3,1,9,0.6,8.7C0,8.2,0,7.8,0.6,7.3c1.3-0.9,2.5-2,3.8-2.9C5.8,3.4,7.1,2.1,8.5,1c0.5-0.5,1-0.9,1.7-0.8
	C10.8,0.2,10.8,0.2,10.8,0.8z M6,9.4C6,9.4,6,9.6,6,9.4c0.2,0,0.2,0,0.2,0H6L6,9.4z"/>
</svg>
