<?xml version="1.0" encoding="utf-8"?>
<!-- Generator: Adobe Illustrator 27.0.0, SVG Export Plug-In . SVG Version: 6.00 Build 0)  -->
<svg version="1.1" id="Layer_2_00000025436642325593891000000015456809626429802413_"
	 xmlns="http://www.w3.org/2000/svg" xmlns:xlink="http://www.w3.org/1999/xlink" x="0px" y="0px" viewBox="0 0 8.5 12.3"
	 style="enable-background:new 0 0 8.5 12.3;" xml:space="preserve">
<style type="text/css">
	.st0{fill:#18181B;}
</style>
<g id="Layer_1-2">
	<path class="st0" d="M8.5,7c0,1.2-0.2,2.2-0.7,3.2c-0.6,1.2-1.6,1.9-2.9,2.1c-1.4,0.2-2.6-0.2-3.5-1.2c-0.4-0.4-0.6-1-0.8-1.5
		C0.2,8.4-0.1,7.2,0,6C0.1,4.6,0.3,3.3,0.9,2c0.4-1,1.2-1.6,2.2-1.9c1.1-0.3,2-0.1,2.9,0.5c0.1,0.1,0.2,0.1,0.2,0.2
		C6.5,1.1,6.8,1.3,7,1.5c0.3,0.3,0.5,0.7,0.6,1.1c0.2,0.7,0.4,1.3,0.6,2C8.3,5,8.4,5.3,8.4,5.7C8.4,6.1,8.5,6.6,8.5,7L8.5,7z"/>
</g>
</svg>
