<?xml version="1.0" encoding="UTF-8"?>
<svg id="Layer_2" data-name="Layer 2" xmlns="http://www.w3.org/2000/svg" version="1.1" viewBox="0 0 8.5 12.3">
  <defs>
    <style>
      .cls-1 {
        fill: #18181b;
        stroke-width: 0px;
      }
    </style>
  </defs>
  <g id="Layer_1-2" data-name="Layer 1-2">
    <path class="cls-1" d="M7.2,6.8c0,.8-.1,1.6-.5,2.3s-1.1,1.3-2,1.5c-1,.1-1.8-.1-2.5-.8-.3-.3-.4-.7-.6-1.1-.3-.8-.5-1.7-.4-2.5,0-1,.2-1.9.6-2.8.3-.7.8-1.1,1.6-1.3.8-.2,1.4,0,2,.4,0,0,.1,0,.1.1.2.2.4.4.6.5.2.2.4.5.4.8.1.5.3.9.4,1.4,0,.3.1.5.1.8s0,.6,0,.9h0Z"/>
  </g>
</svg>