<?xml version="1.0" encoding="UTF-8"?>
<svg id="Layer_2" data-name="Layer 2" xmlns="http://www.w3.org/2000/svg" viewBox="0 0 17.88 11.45">
  <defs>
    <style>
      .cls-1 {
        fill: #18181B;
      }
    </style>
  </defs>
  <g id="Layer_1-2" data-name="Layer 1">
    <path class="cls-1" d="M17.87,3.54c-.07,.88-.04,1.58-.27,2.25-.22,.64-.49,1.26-.89,1.82-.62,.87-1.44,1.49-2.32,2.06-.88,.56-1.78,1.08-2.79,1.38-1.65,.48-3.32,.54-4.98,.13-.99-.24-1.87-.75-2.7-1.33-1.03-.72-1.92-1.59-2.6-2.65C.53,5.99-.02,4.69,0,3.21c0-.54,.14-1.04,.38-1.52C.77,.89,1.51,.6,2.32,.46c.58-.1,1.16,0,1.7,.25,.48,.23,.85,.59,1.1,1.05,.09,.16,.12,.34,.11,.51-.03,.56,.13,1.09,.19,1.63,.02,.22,.09,.43,.22,.61,.33,.46,.63,.94,.99,1.37,.45,.53,1.04,.78,1.71,.85,1.1,.11,2.14-.14,3.12-.62,.9-.44,1.32-1.22,1.44-2.19,.08-.6,.08-1.2,.04-1.79-.06-.88,.4-1.42,1.09-1.81,1.15-.66,2.48-.31,3.36,.83,.31,.4,.39,.86,.43,1.34,.04,.41,.04,.82,.03,1.04Z"/>
  </g>
</svg>