<svg width="45" height="45" viewBox="0 0 45 45" fill="none" xmlns="http://www.w3.org/2000/svg">
<path d="M24.9218 16.9672C24.4318 16.9258 23.939 17.004 23.4858 17.195C23.0327 17.3861 22.6327 17.6843 22.3203 18.0641C22.2872 18.1027 22.2463 18.1337 22.2001 18.1549C22.154 18.1762 22.1038 18.1872 22.0531 18.1872C22.0023 18.1872 21.9521 18.1762 21.906 18.1549C21.8599 18.1337 21.8189 18.1027 21.7859 18.0641C21.4848 17.7004 21.1031 17.4119 20.671 17.2215C20.2389 17.0311 19.7684 16.944 19.2968 16.9672C17.8906 17.1219 16.4843 18.3735 16.4843 20.7782C16.4843 24.7016 21.4906 28.3438 21.7015 28.4985C21.8214 28.5813 21.9636 28.6257 22.1093 28.6257C22.255 28.6257 22.3973 28.5813 22.5171 28.4985C22.7281 28.3438 27.7343 24.6875 27.7343 20.7782C27.7343 18.3594 26.3281 17.1219 24.9218 16.9672Z" fill="black"/>
<path d="M35.4687 34.5312C35.4687 35.6501 35.0242 36.7232 34.233 37.5144C33.4419 38.3055 32.3688 38.75 31.2499 38.75H12.9687C11.8498 38.75 10.7768 38.3055 9.98558 37.5144C9.19441 36.7232 8.74994 35.6501 8.74994 34.5312V9.21875C8.74994 8.09987 9.19441 7.02681 9.98558 6.23564C10.7768 5.44447 11.8498 5 12.9687 5H31.2499C32.3688 5 33.4419 5.44447 34.233 6.23564C35.0242 7.02681 35.4687 8.09987 35.4687 9.21875V34.5312ZM12.9687 7.8125C12.5957 7.8125 12.238 7.96066 11.9743 8.22438C11.7106 8.4881 11.5624 8.84579 11.5624 9.21875V34.5312C11.5624 34.9042 11.7106 35.2619 11.9743 35.5256C12.238 35.7893 12.5957 35.9375 12.9687 35.9375H31.2499C31.6229 35.9375 31.9806 35.7893 32.2443 35.5256C32.508 35.2619 32.6562 34.9042 32.6562 34.5312V9.21875C32.6562 8.84579 32.508 8.4881 32.2443 8.22438C31.9806 7.96066 31.6229 7.8125 31.2499 7.8125H12.9687Z" fill="black"/>
<path d="M13.6718 11.6796C13.6718 12.1458 13.857 12.5929 14.1867 12.9226C14.5163 13.2522 14.9634 13.4374 15.4296 13.4374C15.8958 13.4374 16.3429 13.2522 16.6726 12.9226C17.0022 12.5929 17.1874 12.1458 17.1874 11.6796C17.1874 11.2134 17.0022 10.7663 16.6726 10.4367C16.3429 10.107 15.8958 9.92181 15.4296 9.92181C14.9634 9.92181 14.5163 10.107 14.1867 10.4367C13.857 10.7663 13.6718 11.2134 13.6718 11.6796ZM27.0312 32.0703C27.0312 32.5365 27.2164 32.9836 27.546 33.3132C27.8757 33.6429 28.3228 33.8281 28.789 33.8281C29.2552 33.8281 29.7023 33.6429 30.032 33.3132C30.3616 32.9836 30.5468 32.5365 30.5468 32.0703C30.5468 31.6041 30.3616 31.1569 30.032 30.8273C29.7023 30.4976 29.2552 30.3124 28.789 30.3124C28.3228 30.3124 27.8757 30.4976 27.546 30.8273C27.2164 31.1569 27.0312 31.6041 27.0312 32.0703Z" fill="black"/>
</svg>
