<svg width="45" height="45" viewBox="0 0 45 45" fill="none" xmlns="http://www.w3.org/2000/svg">
<path d="M7.9744 9.7146C8.39871 9.94644 8.87884 10.0676 9.36706 10.0662C9.85528 10.0647 10.3346 9.94056 10.7574 9.70614C11.1801 9.47173 11.5316 9.13517 11.7769 8.72994C12.0222 8.3247 12.1528 7.86489 12.1557 7.3962H14.9682C14.9708 7.86515 15.1013 8.32526 15.3467 8.73074C15.5921 9.13623 15.9439 9.47296 16.3669 9.70743C16.79 9.94189 17.2696 10.0659 17.7581 10.0672C18.2466 10.0684 18.7269 9.94689 19.1513 9.7146L20.5575 12.051C21.3394 11.6316 22.275 11.3544 23.2275 11.1906C23.17 11.0286 23.095 10.8702 23.0025 10.7154L21.5794 8.352C21.2114 7.7387 20.6058 7.28991 19.8946 7.10345C19.1833 6.917 18.4242 7.00799 17.7825 7.3566C17.7761 6.64873 17.4784 5.97201 16.9544 5.47398C16.4303 4.97596 15.7224 4.69702 14.985 4.698H12.1425C10.605 4.698 9.35815 5.886 9.34503 7.3584C8.70322 7.00922 7.9436 6.91791 7.23192 7.1044C6.52025 7.29088 5.91429 7.74002 5.54628 8.3538L4.12503 10.7154C3.35628 11.9934 3.80628 13.6242 5.12628 14.3712C4.49044 14.7302 4.02832 15.3161 3.84074 16.001C3.65316 16.6859 3.75536 17.4142 4.12503 18.027L5.54628 20.3904C6.31503 21.6684 8.01003 22.1094 9.34503 21.3858C9.35628 22.4982 10.0725 23.4504 11.085 23.8482C11.0794 22.8204 11.3475 21.7782 11.9232 20.8242L12.0507 20.6118C11.9322 20.2218 11.7233 19.8626 11.4396 19.5612C11.1558 19.2598 10.8046 19.024 10.4124 18.8715C10.0201 18.7191 9.59694 18.654 9.1747 18.681C8.75245 18.7081 8.34208 18.8267 7.9744 19.0278L6.56815 16.6896C8.41503 15.6528 8.41503 13.0896 6.56815 12.0528L7.9744 9.7146Z" fill="black"/>
<path d="M13.5637 17.0711C14.3096 17.0711 15.025 16.7867 15.5525 16.2803C16.0799 15.774 16.3762 15.0872 16.3762 14.3711C16.3762 13.6551 16.0799 12.9683 15.5525 12.462C15.025 11.9556 14.3096 11.6711 13.5637 11.6711C12.8178 11.6711 12.1024 11.9556 11.575 12.462C11.0475 12.9683 10.7512 13.6551 10.7512 14.3711C10.7512 15.0872 11.0475 15.774 11.575 16.2803C12.1024 16.7867 12.8178 17.0711 13.5637 17.0711Z" fill="black"/>
<path fill-rule="evenodd" clip-rule="evenodd" d="M21.8251 27.1982C21.8251 25.735 22.4305 24.3317 23.5083 23.297C24.586 22.2624 26.0478 21.6812 27.5719 21.6812C29.0961 21.6812 30.5579 22.2624 31.6356 23.297C32.7133 24.3317 33.3188 25.735 33.3188 27.1982C33.3188 28.6614 32.7133 30.0646 31.6356 31.0993C30.5579 32.1339 29.0961 32.7151 27.5719 32.7151C26.0478 32.7151 24.586 32.1339 23.5083 31.0993C22.4305 30.0646 21.8251 28.6614 21.8251 27.1982ZM27.5738 24.383C27.1885 24.383 26.8069 24.4558 26.4509 24.5974C26.0949 24.739 25.7714 24.9465 25.4989 25.208C25.2264 25.4696 25.0103 25.7802 24.8628 26.1219C24.7153 26.4637 24.6394 26.83 24.6394 27.2C24.6394 27.5699 24.7153 27.9362 24.8628 28.278C25.0103 28.6197 25.2264 28.9303 25.4989 29.1919C25.7714 29.4535 26.0949 29.661 26.4509 29.8025C26.8069 29.9441 27.1885 30.017 27.5738 30.017C28.3521 30.017 29.0984 29.7202 29.6487 29.1919C30.199 28.6636 30.5082 27.9471 30.5082 27.2C30.5082 26.4528 30.199 25.7363 29.6487 25.208C29.0984 24.6797 28.3521 24.383 27.5738 24.383Z" fill="black"/>
<path fill-rule="evenodd" clip-rule="evenodd" d="M14.3588 32.2253C14.1328 31.85 13.9861 31.4356 13.927 31.0058C13.8679 30.576 13.8977 30.1393 14.0145 29.7205C14.1313 29.3018 14.333 28.9092 14.6079 28.5653C14.8829 28.2214 15.2257 27.9329 15.6169 27.7163C15.7115 27.6636 15.79 27.588 15.8445 27.497C15.8991 27.406 15.9278 27.3029 15.9278 27.1979C15.9278 27.0929 15.8991 26.9898 15.8445 26.8988C15.79 26.8078 15.7115 26.7322 15.6169 26.6795C14.8277 26.2417 14.2521 25.5209 14.0165 24.6757C13.7809 23.8304 13.9047 22.9299 14.3606 22.1723L16.4344 18.7235C16.8904 17.9664 17.6409 17.4141 18.5209 17.188C19.4009 16.9618 20.3385 17.0804 21.1275 17.5175C21.2222 17.5704 21.3299 17.5984 21.4395 17.5986C21.5491 17.5988 21.6569 17.5712 21.7518 17.5186C21.8467 17.466 21.9255 17.3902 21.9802 17.299C22.0349 17.2078 22.0635 17.1043 22.0631 16.9991C22.0631 15.1775 23.6006 13.6997 25.4981 13.6997H29.6475C31.5469 13.6997 33.0844 15.1775 33.0844 16.9991C33.0844 17.4599 33.6038 17.7479 34.0181 17.5175C34.4086 17.3003 34.8399 17.1593 35.2873 17.1023C35.7347 17.0454 36.1894 17.0738 36.6253 17.1858C37.0613 17.2978 37.4699 17.4913 37.8278 17.7552C38.1858 18.0191 38.486 18.3481 38.7113 18.7235L40.7869 22.1759C41.0128 22.5507 41.1595 22.9646 41.2187 23.3939C41.2778 23.8232 41.2482 24.2595 41.1315 24.6778C41.0148 25.0961 40.8134 25.4882 40.5387 25.8316C40.264 26.1751 39.9214 26.4632 39.5306 26.6795C39.4356 26.7318 39.3566 26.8073 39.3017 26.8984C39.2467 26.9894 39.2178 27.0927 39.2178 27.1979C39.2178 27.3031 39.2467 27.4064 39.3017 27.4975C39.3566 27.5885 39.4356 27.664 39.5306 27.7163C40.3193 28.1541 40.8946 28.8746 41.1301 29.7194C41.3657 30.5642 41.2422 31.4642 40.7869 32.2217L38.715 35.6705C38.4894 36.0458 38.1889 36.3747 37.8308 36.6385C37.4728 36.9023 37.0641 37.0958 36.6281 37.2079C36.1921 37.3201 35.7374 37.3487 35.2899 37.2921C34.8424 37.2356 34.4109 37.095 34.02 36.8783C33.9251 36.8255 33.8174 36.7976 33.7077 36.7975C33.5981 36.7973 33.4903 36.8249 33.3952 36.8775C33.3002 36.93 33.2213 37.0057 33.1664 37.0968C33.1115 37.188 33.0825 37.2914 33.0825 37.3967C33.0825 39.2201 31.545 40.6961 29.6475 40.6961H25.5C24.5888 40.6961 23.7149 40.3487 23.0704 39.7304C22.4259 39.112 22.0636 38.2733 22.0631 37.3985C22.0631 37.2932 22.0342 37.1898 21.9793 37.0986C21.9244 37.0075 21.8454 36.9318 21.7504 36.8793C21.6554 36.8267 21.5476 36.7991 21.4379 36.7993C21.3282 36.7994 21.2205 36.8273 21.1256 36.8801C20.3364 37.3171 19.3987 37.4353 18.5186 37.2089C17.6386 36.9824 16.8882 36.4297 16.4325 35.6723L14.3588 32.2253ZM17.0231 30.0545C16.9518 30.0938 16.8893 30.1463 16.8392 30.2089C16.7891 30.2715 16.7523 30.343 16.7311 30.4193C16.7098 30.4955 16.7045 30.5751 16.7153 30.6534C16.7262 30.7316 16.7531 30.807 16.7944 30.8753L18.8681 34.3223C19.0406 34.6103 19.4213 34.7075 19.7213 34.5419C22.0106 33.2729 24.8756 34.8587 24.8756 37.3985C24.8756 37.7279 25.155 37.9961 25.5 37.9961H29.6475C29.8131 37.9961 29.9719 37.933 30.089 37.8205C30.2061 37.7081 30.2719 37.5557 30.2719 37.3967C30.2719 34.8587 33.135 33.2711 35.4263 34.5401C35.7263 34.7057 36.1069 34.6067 36.2794 34.3205L38.3531 30.8717C38.4354 30.7342 38.4575 30.5709 38.4146 30.4177C38.3717 30.2646 38.2674 30.134 38.1244 30.0545C35.835 28.7855 35.8331 25.6121 38.1244 24.3413C38.1953 24.3023 38.2575 24.2503 38.3074 24.1881C38.3573 24.1259 38.3938 24.0548 38.4149 23.979C38.436 23.9032 38.4412 23.8241 38.4303 23.7463C38.4194 23.6686 38.3925 23.5937 38.3513 23.5259L36.2756 20.0753C36.2352 20.0068 36.181 19.9467 36.1161 19.8985C36.0513 19.8503 35.9771 19.8149 35.8979 19.7945C35.8187 19.7741 35.736 19.769 35.6547 19.7795C35.5734 19.79 35.4951 19.8159 35.4244 19.8557C33.135 21.1265 30.2719 19.5371 30.2719 16.9991C30.2719 16.8401 30.2061 16.6877 30.089 16.5753C29.9719 16.4629 29.8131 16.3997 29.6475 16.3997H25.5C25.418 16.3992 25.3366 16.4144 25.2608 16.4444C25.1849 16.4744 25.116 16.5185 25.058 16.5743C25.0001 16.6301 24.9543 16.6964 24.9233 16.7693C24.8923 16.8422 24.8768 16.9203 24.8775 16.9991C24.8775 19.5371 22.0144 21.1247 19.7231 19.8539C19.5798 19.7749 19.4098 19.7537 19.2502 19.7949C19.0907 19.836 18.9546 19.9362 18.8719 20.0735L16.7981 23.5223C16.7571 23.5905 16.7305 23.6658 16.7198 23.7438C16.7091 23.8219 16.7145 23.9012 16.7357 23.9773C16.757 24.0534 16.7936 24.1247 16.8436 24.1871C16.8935 24.2496 16.9558 24.302 17.0269 24.3413C19.3181 25.6103 19.3144 28.7873 17.0269 30.0545" fill="black"/>
</svg>
