<svg width="45" height="45" viewBox="0 0 45 45" fill="none" xmlns="http://www.w3.org/2000/svg">
<path d="M19.1172 26.6305V29.0128C19.1172 30.487 18.5315 31.9008 17.4891 32.9433C16.4467 33.9857 15.0328 34.5713 13.5586 34.5713C12.0844 34.5713 10.6705 33.9857 9.62807 32.9433C8.58564 31.9008 8 30.487 8 29.0128V17.8956M27.058 26.6305V29.0128C27.058 30.487 27.6437 31.9008 28.6861 32.9433C29.7285 33.9857 31.1424 34.5713 32.6166 34.5713C34.0909 34.5713 35.5047 33.9857 36.5471 32.9433C37.5896 31.9008 38.1752 30.487 38.1752 29.0128V17.8956" stroke="black" stroke-width="3.45396" stroke-linecap="round" stroke-linejoin="round"/>
<path d="M29.4403 9.16071H16.7349C11.9108 9.16071 8 13.0715 8 17.8956C8 22.7198 11.9108 26.6306 16.7349 26.6306H29.4403C34.2645 26.6306 38.1752 22.7198 38.1752 17.8956C38.1752 13.0715 34.2645 9.16071 29.4403 9.16071Z" stroke="black" stroke-width="3.45396"/>
<path d="M20.7055 17.8956H14.3528M17.5291 14.7192V21.0719" stroke="black" stroke-width="3.45396" stroke-linecap="round" stroke-linejoin="round"/>
<path d="M32.6166 16.3074C32.6166 15.4303 31.9055 14.7192 31.0284 14.7192C30.1513 14.7192 29.4402 15.4303 29.4402 16.3074C29.4402 17.1845 30.1513 17.8956 31.0284 17.8956C31.9055 17.8956 32.6166 17.1845 32.6166 16.3074Z" fill="black"/>
<path d="M29.4404 20.2779C29.4404 19.4008 28.7293 18.6898 27.8522 18.6898C26.9751 18.6898 26.264 19.4008 26.264 20.2779C26.264 21.155 26.9751 21.8661 27.8522 21.8661C28.7293 21.8661 29.4404 21.155 29.4404 20.2779Z" fill="black"/>
</svg>
