<svg width="45" height="45" viewBox="0 0 45 45" fill="none" xmlns="http://www.w3.org/2000/svg">
<g clip-path="url(#clip0_16_35)">
<path d="M33.4625 10C34.3232 10 35.1486 10.3419 35.7572 10.9505C36.3658 11.5591 36.7078 12.3846 36.7078 13.2453V32.7171C36.7078 33.5779 36.3658 34.4033 35.7572 35.0119C35.1486 35.6205 34.3232 35.9624 33.4625 35.9624H10.7453C9.8846 35.9624 9.05914 35.6205 8.45053 35.0119C7.84192 34.4033 7.5 33.5779 7.5 32.7171V13.2453C7.5 12.3846 7.84192 11.5591 8.45053 10.9505C9.05914 10.3419 9.8846 10 10.7453 10H33.4625ZM33.4625 19.7359H10.7453V31.0945C10.7454 31.4919 10.8913 31.8755 11.1554 32.1725C11.4195 32.4695 11.7834 32.6593 12.1781 32.7058L12.368 32.7171H31.8398C32.2372 32.7171 32.6208 32.5712 32.9178 32.3071C33.2148 32.043 33.4046 31.6791 33.4511 31.2843L33.4625 31.0945V19.7359ZM12.368 13.2453C11.9376 13.2453 11.5249 13.4163 11.2206 13.7206C10.9163 14.0249 10.7453 14.4376 10.7453 14.868C10.7453 15.2983 10.9163 15.711 11.2206 16.0153C11.5249 16.3197 11.9376 16.4906 12.368 16.4906C12.7983 16.4906 13.211 16.3197 13.5153 16.0153C13.8197 15.711 13.9906 15.2983 13.9906 14.868C13.9906 14.4376 13.8197 14.0249 13.5153 13.7206C13.211 13.4163 12.7983 13.2453 12.368 13.2453ZM17.2359 13.2453C16.8056 13.2453 16.3928 13.4163 16.0885 13.7206C15.7842 14.0249 15.6133 14.4376 15.6133 14.868C15.6133 15.2983 15.7842 15.711 16.0885 16.0153C16.3928 16.3197 16.8056 16.4906 17.2359 16.4906C17.6663 16.4906 18.079 16.3197 18.3833 16.0153C18.6876 15.711 18.8586 15.2983 18.8586 14.868C18.8586 14.4376 18.6876 14.0249 18.3833 13.7206C18.079 13.4163 17.6663 13.2453 17.2359 13.2453ZM22.1039 13.2453C21.6735 13.2453 21.2608 13.4163 20.9565 13.7206C20.6522 14.0249 20.4812 14.4376 20.4812 14.868C20.4812 15.2983 20.6522 15.711 20.9565 16.0153C21.2608 16.3197 21.6735 16.4906 22.1039 16.4906C22.5342 16.4906 22.947 16.3197 23.2513 16.0153C23.5556 15.711 23.7265 15.2983 23.7265 14.868C23.7265 14.4376 23.5556 14.0249 23.2513 13.7206C22.947 13.4163 22.5342 13.2453 22.1039 13.2453Z" fill="black"/>
</g>
<defs>
<clipPath id="clip0_16_35">
<rect width="45" height="45" fill="white"/>
</clipPath>
</defs>
</svg>
