<svg width="387" height="138" viewBox="0 0 387 138" fill="none" xmlns="http://www.w3.org/2000/svg">
<path d="M7.84485 127.121C7.84485 125.327 7.84485 121.714 9.86226 105.758C11.5455 92.4452 15.9145 68.7311 18.4413 54.9217C21.5534 37.9142 22.7886 31.6026 22.7886 28.1927C22.7886 25.7746 23.2369 35.6239 31.0892 53.8145C38.058 69.9585 52.8392 99.3523 60.9021 114.819C68.9649 130.286 70.3099 130.734 71.0027 130.293C72.6186 129.263 72.5922 125.327 80.6754 104.902C87.862 86.2697 101.311 50.8529 108.464 31.7113C115.617 12.5697 116.065 10.7764 117.885 7.57031" stroke="black" stroke-width="14" stroke-linecap="round"/>
<path d="M144.001 58.7777C144.001 59.9074 144.001 61.0371 144.001 72.7279C144.001 106.636 145.131 129.527 147.596 129.339C150.437 128.774 167.805 126.503 194.028 123.65C204.435 122.68 208.954 122.68 212.468 121.539" stroke="black" stroke-width="14" stroke-linecap="round"/>
<path d="M148.566 89.588H182.799" stroke="black" stroke-width="14" stroke-linecap="round"/>
<path d="M148.566 59.9189C159.886 59.5423 183.507 58.0246 190.576 57.2601C191.917 56.8835 193.047 56.1303 194.193 55.5541C195.34 54.9778 196.47 54.6012 195.352 54.2133" stroke="black" stroke-width="14" stroke-linecap="round"/>
<path d="M254.69 42.802C254.69 43.1786 254.69 43.5551 254.69 59.0002C254.69 74.4453 254.69 104.947 255.631 118.778C256.573 132.608 258.456 128.843 267.522 115.606C276.588 102.369 292.781 79.7743 301.499 67.3818C310.217 54.9892 310.97 53.4829 312.887 50.7899" stroke="black" stroke-width="14" stroke-linecap="round"/>
<path d="M286.641 45.0843C287.018 50.3905 292.301 65.5103 299.736 81.3491C310.06 103.344 315.158 112.022 317.058 112.599C317.814 112.828 318.205 111.292 327.06 99.6013C335.915 87.9106 353.237 65.6929 362.726 53.3061C373.344 39.0363 375.261 35.9667 376.779 33.5019C377.543 32.1668 378.296 30.6605 379.072 29.1086" stroke="black" stroke-width="14" stroke-linecap="round"/>
</svg>
