<svg width="1008" height="483" viewBox="0 0 1008 483" fill="none" xmlns="http://www.w3.org/2000/svg">
<g clip-path="url(#clip0_619_2)">
<rect width="1008" height="483" rx="15" fill="black" fill-opacity="0.19"/>
<path d="M95.5329 415.717C93.8355 415.995 92.3249 415.928 91.001 415.517C89.6936 415.082 88.6205 414.346 87.7817 413.308C86.9595 412.247 86.419 410.927 86.1605 409.348L83.9596 395.907L87.8675 395.267L90.0878 408.826C90.2947 410.09 90.8132 411.028 91.6433 411.642C92.4931 412.253 93.599 412.447 94.9609 412.224C96.3227 412.001 97.2991 411.466 97.8901 410.619C98.5008 409.769 98.7027 408.713 98.4959 407.45L96.2756 393.89L100.184 393.25L102.384 406.691C102.643 408.27 102.542 409.695 102.081 410.966C101.637 412.215 100.855 413.255 99.7347 414.087C98.6309 414.896 97.2303 415.439 95.5329 415.717ZM108.547 413.16L105.154 392.436L109.062 391.797L112.455 412.521L108.547 413.16ZM116.079 418.007L120.42 389.937L124.151 389.326L119.81 417.396L116.079 418.007ZM138.261 408.72C136.564 408.998 135.053 408.932 133.729 408.52C132.422 408.086 131.349 407.349 130.51 406.311C129.688 405.25 129.147 403.93 128.889 402.351L126.688 388.91L130.596 388.27L132.816 401.83C133.023 403.093 133.541 404.032 134.372 404.645C135.221 405.256 136.327 405.45 137.689 405.227C139.051 405.004 140.027 404.469 140.618 403.623C141.229 402.773 141.431 401.716 141.224 400.453L139.004 386.894L142.912 386.254L145.113 399.695C145.371 401.274 145.27 402.699 144.81 403.97C144.365 405.218 143.583 406.258 142.463 407.09C141.359 407.899 139.959 408.443 138.261 408.72ZM149.973 406.377L154.331 394.933L146.638 385.643L151.079 384.916L156.421 391.733L156.954 391.645L159.843 383.481L164.283 382.754L159.956 394.011L167.736 403.468L163.295 404.196L157.865 397.211L157.332 397.299L154.413 405.65L149.973 406.377Z" fill="white" fill-opacity="0.17"/>
<path d="M857.7 237.652L867.255 218.154L874.02 219.516L875.288 241.192L871.288 240.387L871.082 235.633L863.729 234.153L861.7 238.457L857.7 237.652ZM865.363 230.748L870.892 231.861L870.411 221.329L869.882 221.223L865.363 230.748ZM878.928 241.925L883.072 221.338L891.542 223.043C892.836 223.303 893.92 223.797 894.794 224.523C895.691 225.234 896.32 226.116 896.679 227.167C897.058 228.223 897.118 229.398 896.857 230.692L896.774 231.103C896.518 232.378 895.999 233.436 895.217 234.279C894.459 235.105 893.527 235.683 892.42 236.011C891.337 236.323 890.169 236.353 888.914 236.101L884.326 235.177L882.81 242.706L878.928 241.925ZM885.036 231.648L889.242 232.494C890.163 232.68 890.96 232.575 891.631 232.18C892.302 231.784 892.726 231.146 892.904 230.263L892.963 229.969C893.141 229.087 892.997 228.334 892.531 227.709C892.065 227.085 891.371 226.68 890.449 226.495L886.244 225.648L885.036 231.648ZM897.854 245.734L901.998 225.147L910.468 226.852C911.762 227.112 912.846 227.606 913.72 228.333C914.617 229.044 915.246 229.925 915.605 230.977C915.984 232.032 916.044 233.207 915.783 234.501L915.7 234.913C915.444 236.187 914.925 237.246 914.143 238.088C913.385 238.915 912.453 239.492 911.346 239.82C910.263 240.133 909.094 240.163 907.84 239.91L903.252 238.987L901.736 246.516L897.854 245.734ZM903.962 235.457L908.168 236.304C909.089 236.489 909.886 236.384 910.557 235.989C911.228 235.594 911.652 234.955 911.83 234.073L911.889 233.779C912.067 232.896 911.923 232.143 911.457 231.519C910.991 230.895 910.297 230.49 909.375 230.304L905.17 229.458L903.962 235.457Z" fill="white" fill-opacity="0.17"/>
<path d="M622.631 80.2419L624.069 59.1102L627.921 59.8856L626.322 78.1695L626.852 78.2761L633.039 60.9157L639.744 62.2653L638.733 80.6676L639.263 80.7742L644.862 63.2954L648.714 64.0708L641.865 84.1133L635.159 82.7637L636.194 63.9378L635.665 63.8312L629.336 81.5916L622.631 80.2419ZM648.583 85.4656L652.727 64.8785L665.962 67.5423L665.251 71.0715L655.899 69.1891L654.91 74.1006L663.439 75.8173L662.729 79.3465L654.2 77.6298L653.176 82.7178L662.705 84.6357L661.994 88.165L648.583 85.4656ZM665.456 88.8618L666.143 85.4502L668.849 85.9948L671.619 72.2308L668.913 71.6862L669.6 68.2747L680.188 70.4057C681.442 70.6583 682.487 71.093 683.322 71.7098C684.18 72.311 684.785 73.055 685.137 73.9419C685.513 74.8131 685.592 75.7879 685.375 76.8663L685.316 77.1604C685.126 78.1015 684.794 78.8405 684.319 79.3772C683.847 79.8944 683.333 80.2703 682.776 80.505C682.242 80.724 681.746 80.8587 681.287 80.9091L681.18 81.4385C681.588 81.643 682.013 81.9631 682.456 82.3991C682.902 82.8154 683.241 83.363 683.471 84.0418C683.722 84.7246 683.748 85.5562 683.551 86.5365L683.492 86.8306C683.263 87.9678 682.801 88.8949 682.106 89.6118C681.414 90.3091 680.555 90.7787 679.527 91.0207C678.519 91.2665 677.397 91.2651 676.162 91.0165L665.456 88.8618ZM672.754 86.6586L676.401 87.3926C677.244 87.5623 677.962 87.4926 678.555 87.1834C679.167 86.8782 679.55 86.3433 679.704 85.5787L679.763 85.2845C679.917 84.5199 679.781 83.8804 679.354 83.366C678.927 82.8517 678.282 82.5077 677.419 82.334L673.773 81.6L672.754 86.6586ZM674.483 78.0708L678.071 78.793C678.875 78.9548 679.573 78.8811 680.166 78.572C680.778 78.2668 681.157 77.7515 681.303 77.026L681.362 76.7319C681.512 75.9869 681.372 75.367 680.941 74.8722C680.514 74.3579 679.889 74.0178 679.066 73.8521L675.477 73.1299L674.483 78.0708Z" fill="white" fill-opacity="0.17"/>
<path d="M686.993 417.75C685.582 417.466 684.361 416.893 683.33 416.033C682.323 415.157 681.599 414.042 681.157 412.689C680.739 411.319 680.708 409.752 681.063 407.988L682.058 403.047C682.59 400.4 683.744 398.52 685.518 397.409C687.296 396.277 689.46 395.968 692.009 396.481C694.538 396.99 696.353 398.059 697.453 399.688C698.577 401.302 698.908 403.256 698.446 405.55L698.422 405.667L694.599 404.898L694.646 404.662C694.792 403.937 694.768 403.249 694.572 402.597C694.397 401.95 694.038 401.398 693.498 400.943C692.961 400.467 692.232 400.137 691.31 399.952C689.938 399.675 688.774 399.88 687.821 400.565C686.867 401.25 686.244 402.318 685.952 403.769L684.933 408.828C684.645 410.259 684.805 411.495 685.411 412.535C686.022 413.556 687.033 414.208 688.445 414.492C689.856 414.776 690.961 414.611 691.758 413.996C692.555 413.381 693.068 412.505 693.297 411.368L693.356 411.074L688.474 410.091L689.137 406.797L697.842 408.55L695.723 419.078L692.135 418.356L692.531 416.386L692.002 416.279C691.798 416.585 691.501 416.892 691.112 417.202C690.743 417.515 690.229 417.738 689.57 417.871C688.911 418.003 688.052 417.963 686.993 417.75ZM699.196 419.778L708.752 400.28L715.516 401.641L716.784 423.317L712.784 422.512L712.578 417.758L705.225 416.278L703.196 420.583L699.196 419.778ZM706.859 412.874L712.388 413.987L711.907 403.455L711.378 403.348L706.859 412.874ZM720.424 424.05L724.568 403.463L731.774 404.913L731.721 423.57L732.251 423.676L739.42 406.453L746.626 407.903L742.482 428.49L738.717 427.732L742.287 409.998L741.758 409.891L734.659 426.915L728.247 425.625L728.288 407.18L727.758 407.074L724.189 424.808L720.424 424.05ZM747.536 429.507L751.679 408.92L764.914 411.584L764.204 415.113L754.851 413.231L753.863 418.142L762.392 419.859L761.681 423.388L753.152 421.671L752.128 426.759L761.657 428.677L760.947 432.207L747.536 429.507ZM772.061 434.872C770.473 434.552 769.128 433.986 768.027 433.173C766.925 432.359 766.138 431.354 765.665 430.157C765.192 428.96 765.105 427.617 765.405 426.127L765.571 425.303L769.394 426.073L769.229 426.896C768.98 428.132 769.175 429.14 769.813 429.921C770.456 430.683 771.434 431.196 772.747 431.46C774.081 431.729 775.124 431.663 775.878 431.264C776.651 430.869 777.12 430.26 777.286 429.436C777.4 428.868 777.327 428.373 777.064 427.953C776.822 427.537 776.408 427.158 775.824 426.816C775.264 426.459 774.562 426.093 773.719 425.719L773.072 425.436C771.724 424.838 770.587 424.201 769.662 423.526C768.761 422.834 768.115 422.041 767.724 421.146C767.352 420.256 767.293 419.183 767.545 417.928C767.798 416.673 768.307 415.664 769.073 414.9C769.862 414.12 770.843 413.604 772.017 413.35C773.213 413.081 774.547 413.094 776.017 413.39C777.488 413.686 778.74 414.204 779.775 414.942C780.833 415.665 781.585 416.592 782.031 417.722C782.5 418.837 782.585 420.139 782.285 421.629L782.107 422.511L778.284 421.742L778.461 420.859C778.619 420.075 778.589 419.416 778.37 418.883C778.174 418.333 777.814 417.893 777.289 417.563C776.768 417.214 776.115 416.96 775.331 416.802C774.154 416.565 773.236 416.615 772.577 416.951C771.941 417.272 771.546 417.815 771.392 418.58C771.29 419.09 771.33 419.547 771.514 419.951C771.718 420.359 772.06 420.734 772.542 421.076C773.024 421.418 773.659 421.76 774.447 422.102L775.094 422.385C776.502 422.995 777.695 423.653 778.675 424.36C779.674 425.072 780.397 425.89 780.843 426.817C781.289 427.743 781.386 428.833 781.133 430.088C780.88 431.343 780.334 432.386 779.494 433.216C778.677 434.031 777.625 434.594 776.338 434.907C775.075 435.203 773.649 435.192 772.061 434.872Z" fill="white" fill-opacity="0.17"/>
<path d="M69.8545 160.777L68.8051 157.459L71.4366 156.627L67.2027 143.24L64.5712 144.073L63.5218 140.755L71.7596 138.149C74.4483 137.299 76.7058 137.34 78.5321 138.272C80.3714 139.18 81.7163 140.978 82.5667 143.667L83.7608 147.443C84.6112 150.131 84.548 152.385 83.5711 154.205C82.6073 155.999 80.781 157.321 78.0923 158.171L69.8545 160.777ZM75.1761 155.318L77.0639 154.721C78.5894 154.238 79.5783 153.485 80.0305 152.461C80.4828 151.437 80.4797 150.2 80.0214 148.751L78.7548 144.747C78.2904 143.278 77.5818 142.265 76.629 141.706C75.6701 141.128 74.4279 141.081 72.9024 141.563L71.0146 142.16L75.1761 155.318ZM90.6211 154.209L84.2883 134.186L97.1599 130.115L98.2455 133.548L89.1496 136.425L90.6604 141.201L98.9554 138.578L100.041 142.01L91.746 144.634L93.3111 149.582L102.579 146.651L103.664 150.084L90.6211 154.209ZM114.681 147.04C113.136 147.528 111.685 147.683 110.328 147.504C108.971 147.325 107.796 146.826 106.802 146.007C105.809 145.189 105.084 144.055 104.625 142.606L104.372 141.805L108.09 140.629L108.344 141.43C108.724 142.631 109.382 143.419 110.319 143.794C111.249 144.15 112.353 144.126 113.631 143.722C114.928 143.312 115.809 142.75 116.276 142.036C116.761 141.316 116.877 140.555 116.624 139.755C116.449 139.202 116.145 138.805 115.713 138.564C115.299 138.317 114.754 138.185 114.077 138.169C113.414 138.127 112.623 138.146 111.704 138.227L111.001 138.292C109.532 138.421 108.229 138.414 107.093 138.27C105.969 138.101 105.02 137.719 104.245 137.125C103.489 136.525 102.918 135.615 102.532 134.395C102.146 133.174 102.103 132.045 102.404 131.006C102.717 129.941 103.326 129.015 104.23 128.225C105.147 127.411 106.321 126.777 107.751 126.325C109.181 125.873 110.528 125.72 111.791 125.866C113.067 125.986 114.173 126.434 115.11 127.207C116.06 127.955 116.764 129.054 117.222 130.504L117.494 131.362L113.775 132.538L113.504 131.68C113.263 130.917 112.917 130.355 112.467 129.994C112.03 129.607 111.502 129.397 110.883 129.362C110.258 129.308 109.563 129.402 108.801 129.643C107.657 130.005 106.877 130.493 106.463 131.106C106.062 131.694 105.979 132.361 106.214 133.104C106.371 133.6 106.627 133.98 106.984 134.245C107.359 134.504 107.841 134.666 108.428 134.732C109.015 134.798 109.736 134.79 110.592 134.709L111.295 134.644C112.821 134.496 114.185 134.495 115.384 134.64C116.603 134.779 117.631 135.146 118.47 135.741C119.308 136.336 119.92 137.244 120.306 138.464C120.692 139.684 120.718 140.861 120.385 141.995C120.064 143.103 119.416 144.105 118.441 145.001C117.479 145.872 116.225 146.551 114.681 147.04ZM126.094 142.989L119.761 122.967L123.537 121.773L129.869 141.795L126.094 142.989ZM141.829 138.453C140.456 138.888 139.11 138.978 137.792 138.723C136.487 138.444 135.314 137.818 134.272 136.847C133.244 135.851 132.459 134.495 131.916 132.778L130.396 127.973C129.582 125.399 129.682 123.196 130.697 121.365C131.706 119.514 133.45 118.197 135.929 117.413C138.389 116.635 140.494 116.693 142.245 117.586C144.009 118.455 145.244 120.005 145.95 122.236L145.986 122.35L142.268 123.526L142.195 123.297C141.972 122.592 141.617 122.001 141.131 121.526C140.664 121.044 140.084 120.735 139.39 120.597C138.691 120.441 137.893 120.505 136.997 120.788C135.662 121.21 134.743 121.952 134.239 123.013C133.736 124.074 133.707 125.311 134.153 126.722L135.71 131.642C136.15 133.034 136.887 134.038 137.921 134.655C138.949 135.253 140.15 135.334 141.523 134.9C142.896 134.466 143.782 133.787 144.182 132.863C144.582 131.94 144.608 130.925 144.258 129.819L144.167 129.533L139.419 131.035L138.406 127.831L146.873 125.153L150.111 135.393L146.622 136.497L146.016 134.58L145.501 134.743C145.47 135.11 145.359 135.522 145.168 135.981C144.997 136.434 144.655 136.878 144.142 137.313C143.629 137.747 142.858 138.128 141.829 138.453ZM154.863 133.89L148.53 113.868L155.709 111.597L165.204 127.788L165.719 127.625L160.2 110.177L163.919 109.001L170.251 129.023L163.072 131.294L153.577 115.103L153.063 115.266L158.581 132.714L154.863 133.89Z" fill="white" fill-opacity="0.17"/>
<path d="M504.478 376.856C511.698 376.856 517.881 379.591 522.939 384.987C527.688 390.051 530.21 396.133 530.49 403.158L530.492 403.223L530.49 403.287C530.21 410.313 527.688 416.394 522.939 421.459C517.881 426.854 511.698 429.59 504.478 429.59C497.257 429.59 491.074 426.854 486.016 421.459C481.267 416.394 478.745 410.313 478.465 403.287L478.462 403.223L478.465 403.158C478.745 396.133 481.267 390.051 486.016 384.987C491.074 379.591 497.257 376.856 504.478 376.856Z" fill="url(#paint0_linear_619_2)" stroke="black" stroke-width="3.2255"/>
<path d="M522.028 385.891C517.247 381.11 511.465 378.72 504.682 378.72C497.899 378.72 492.117 381.11 487.336 385.891C482.555 390.672 480.165 396.454 480.165 403.237C480.165 403.646 480.175 404.054 480.196 404.463C480.461 398.211 482.841 392.838 487.336 388.343C492.117 383.562 497.899 381.172 504.682 381.172C511.465 381.172 517.247 383.562 522.028 388.343C526.523 392.838 528.903 398.211 529.169 404.463C529.189 404.054 529.199 403.646 529.199 403.237C529.199 396.454 526.809 390.672 522.028 385.891Z" fill="url(#paint1_linear_619_2)"/>
<path d="M497.287 411.951C497.363 412.56 497.363 413.044 497.536 413.5C497.702 413.936 497.909 414.358 498.2 414.731C498.649 415.312 499.237 415.72 499.866 416.086C500.495 416.453 501.131 416.784 501.837 416.957C502.991 417.241 504.146 417.234 505.28 416.902C505.958 416.708 506.552 416.328 507.112 415.906C507.804 415.381 508.392 414.752 508.834 414.005C509.339 413.148 509.684 412.235 509.629 411.212C509.608 410.845 509.498 410.499 509.325 410.174C509.028 409.628 508.509 409.448 507.949 409.372C507.541 409.317 507.147 409.407 506.78 409.6C506.455 409.773 506.213 410.029 506.048 410.361C505.992 410.472 505.971 410.596 505.985 410.721C506.027 411.101 505.923 411.474 505.902 411.855C505.895 412.007 505.854 412.159 505.771 412.283C505.557 412.608 505.363 412.954 505.121 413.258C504.824 413.632 504.43 413.825 503.959 413.894C503.199 414.005 502.48 413.86 501.781 413.555C501.145 413.279 500.834 412.746 500.723 412.09C500.654 411.682 500.634 411.267 500.64 410.852C500.654 410.244 500.322 409.884 499.838 409.628C499.023 409.206 498.117 409.483 497.536 410.299C497.335 410.582 497.294 410.907 497.273 411.239C497.259 411.523 497.266 411.806 497.28 411.958L497.287 411.951Z" fill="black"/>
<path d="M512.852 408.418C512.852 409.442 513.011 410.292 513.488 411.06C514.497 412.692 516.979 412.65 517.941 410.991C518.328 410.32 518.508 409.587 518.611 408.833C518.791 407.582 518.535 406.386 518.183 405.203C517.885 404.201 517.173 403.648 516.136 403.495C515.686 403.426 515.272 403.516 514.891 403.717C513.785 404.298 513.128 405.21 512.983 406.476C512.907 407.167 512.907 407.858 512.858 408.418H512.852Z" fill="black"/>
<path d="M489.756 408.053C489.756 408.823 489.854 409.501 490.135 410.141C490.481 410.917 491.037 411.367 491.782 411.478C492.561 411.595 493.234 411.334 493.77 410.663C493.992 410.376 494.136 410.03 494.247 409.671C494.476 408.927 494.627 408.151 494.561 407.362C494.496 406.487 494.385 405.613 494.077 404.798C493.829 404.139 493.391 403.761 492.802 403.558C492.194 403.356 491.645 403.493 491.129 403.885C491.076 403.924 491.031 403.969 490.991 404.015C490.867 404.172 490.743 404.315 490.612 404.459C490.442 404.641 490.331 404.896 490.259 405.163C490.141 405.6 490.024 406.037 489.899 406.474C489.834 406.696 489.814 406.931 489.801 407.159C489.782 407.473 489.742 407.786 489.756 408.047V408.053Z" fill="black"/>
<g filter="url(#filter0_f_619_2)">
<path d="M554.128 422.006C547.243 418.696 539.015 416.102 529.956 414.387C520.897 412.672 511.2 411.871 501.47 412.035C491.739 412.199 482.183 413.324 473.396 415.34C464.608 417.356 456.778 420.22 450.393 423.754L503.955 446.127L554.128 422.006Z" fill="#7C45E2"/>
</g>
<g filter="url(#filter1_f_619_2)">
<ellipse cx="503.94" cy="346.101" rx="70.0534" ry="50.1015" fill="#7C45E2"/>
</g>
<path d="M410.216 466.776C410.748 465.122 412.287 464 414.024 464H591.976C593.713 464 595.252 465.122 595.784 466.776L601 483H405L410.216 466.776Z" fill="url(#paint2_linear_619_2)"/>
<path d="M549.137 419.86C551.839 419.86 553.913 422.256 553.525 424.93L547.203 468.595C546.887 470.776 545.017 472.394 542.813 472.394H466.46C464.256 472.394 462.386 470.776 462.07 468.595L455.748 424.93C455.361 422.256 457.435 419.86 460.137 419.86H549.137Z" fill="url(#paint3_linear_619_2)" stroke="#8D8D8D" stroke-width="2.04678"/>
<g opacity="0.3" clip-path="url(#clip1_619_2)">
<path d="M508.859 448.563C508.8 448.515 508.759 448.448 508.743 448.374C508.727 448.299 508.736 448.221 508.771 448.153C510.415 444.681 511.295 440.048 510.019 438.622C509.77 438.35 509.455 438.146 509.105 438.029C508.755 437.913 508.381 437.887 508.018 437.956C507.655 438.024 507.316 438.184 507.032 438.42C506.748 438.656 506.53 438.96 506.396 439.304L504.5 444.121C504.384 444.414 504.254 444.701 504.111 444.988C504.088 445.03 504.057 445.067 504.02 445.096C503.982 445.125 503.939 445.147 503.892 445.158C503.847 445.171 503.799 445.174 503.752 445.166C503.705 445.159 503.66 445.143 503.619 445.117C503.206 444.842 502.742 444.652 502.255 444.558C501.256 444.365 500.222 444.577 499.379 445.146C498.536 445.715 497.954 446.596 497.759 447.594C497.745 447.665 497.754 447.739 497.785 447.805C497.815 447.872 497.866 447.926 497.929 447.962C497.987 448.003 498.056 448.025 498.127 448.025C498.198 448.025 498.267 448.003 498.325 447.962C498.733 447.62 499.213 447.373 499.729 447.239C500.244 447.106 500.784 447.089 501.307 447.191C501.494 447.227 501.679 447.277 501.859 447.341C501.914 447.363 501.962 447.398 501.999 447.443C502.036 447.489 502.061 447.543 502.071 447.601C502.084 447.657 502.081 447.716 502.063 447.772C502.045 447.827 502.012 447.876 501.968 447.914C500.615 449.128 498.969 449.97 497.193 450.357L495.548 450.719C495.279 450.778 495.036 450.924 494.858 451.135C494.68 451.345 494.575 451.608 494.56 451.884C494.546 452.159 494.622 452.432 494.777 452.66C494.932 452.888 495.157 453.06 495.419 453.147C496.562 453.531 497.76 453.726 498.966 453.727C501.134 453.725 503.254 453.09 505.066 451.899C505.61 451.545 506.121 451.143 506.594 450.698C506.655 450.649 506.731 450.622 506.809 450.622C506.887 450.622 506.963 450.649 507.024 450.698C507.19 450.816 507.348 450.946 507.495 451.087C507.872 451.464 508.159 451.921 508.336 452.424C508.513 452.927 508.576 453.463 508.518 453.993C508.517 454.062 508.537 454.129 508.574 454.186C508.612 454.244 508.666 454.288 508.73 454.314C508.795 454.344 508.867 454.354 508.938 454.341C509.009 454.329 509.074 454.296 509.125 454.246C509.488 453.89 509.775 453.465 509.972 452.996C510.168 452.528 510.269 452.025 510.269 451.517C510.269 451.009 510.168 450.506 509.972 450.037C509.775 449.569 509.488 449.144 509.125 448.788L508.859 448.563ZM507.693 439.823C507.746 439.705 507.828 439.602 507.93 439.523C508.032 439.444 508.151 439.39 508.279 439.366C508.406 439.343 508.537 439.351 508.66 439.388C508.784 439.426 508.897 439.493 508.989 439.584C509.576 440.232 509.173 444.114 507.515 447.553C507.484 447.622 507.431 447.678 507.364 447.712C507.297 447.747 507.221 447.758 507.147 447.744C506.656 447.648 506.151 447.648 505.659 447.744C505.572 447.76 505.481 447.743 505.406 447.695C505.332 447.646 505.278 447.571 505.257 447.485C505.193 447.187 505.092 446.898 504.957 446.625C504.928 446.575 504.913 446.519 504.913 446.461C504.913 446.404 504.928 446.347 504.957 446.298C505.283 445.768 505.564 445.211 505.796 444.633L507.693 439.823Z" fill="white"/>
</g>
<path d="M443.38 457.08C443.197 457.003 442.995 456.983 442.801 457.023C442.606 457.062 442.428 457.158 442.29 457.3L442.07 457.52C441.66 457.93 441.24 458.24 440.83 458.45C439.13 459.3 437.14 459.15 435.63 458.12C436.174 457.499 436.572 456.762 436.792 455.965C437.012 455.169 437.048 454.333 436.9 453.52C436.51 451.34 434.81 449.58 432.66 449.13C431 448.79 429.31 449.19 428.02 450.24C427.445 450.707 426.971 451.285 426.626 451.94C426.281 452.595 426.071 453.312 426.01 454.05L425.98 454.01H423.98C423.98 454.01 423.98 456.73 426.58 456.98C426.72 457.25 426.88 457.51 427.06 457.76C426.039 458.328 425.207 459.181 424.663 460.214C424.12 461.248 423.889 462.417 424 463.58C424.28 466.62 427 469.01 430.18 469.01H436.28C440.66 469.01 443.97 466 443.97 462.01V458.01C443.97 457.61 443.73 457.24 443.35 457.09L443.38 457.08ZM431 455C430.45 455 430 454.55 430 454C430 453.45 430.45 453 431 453C431.55 453 432 453.45 432 454C432 454.55 431.55 455 431 455Z" fill="#FBBB3E"/>
<path d="M76.7553 203.755C78.1314 198.31 85.8686 198.31 87.2447 203.755L94.0045 230.507C94.8304 233.776 98.4126 235.501 101.483 234.108L126.613 222.714C131.728 220.395 136.553 226.444 133.153 230.915L116.452 252.879C114.412 255.563 115.297 259.439 118.299 260.972L142.876 273.515C147.879 276.068 146.157 283.612 140.542 283.741L112.957 284.379C109.587 284.457 107.108 287.565 107.782 290.869L113.298 317.904C114.421 323.407 107.45 326.764 103.848 322.455L86.1503 301.286C83.9879 298.699 80.0121 298.699 77.8497 301.286L60.1523 322.455C56.5497 326.764 49.5787 323.407 50.7017 317.904L56.2184 290.869C56.8924 287.565 54.4135 284.457 51.0431 284.379L23.458 283.741C17.8427 283.612 16.121 276.068 21.1239 273.515L45.7005 260.972C48.7034 259.439 49.5881 255.563 47.5476 252.879L30.8471 230.915C27.4474 226.444 32.2715 220.395 37.3871 222.714L62.517 234.108C65.5874 235.501 69.1696 233.776 69.9955 230.507L76.7553 203.755Z" fill="#8B58DF"/>
<path d="M895.927 110.71C897.669 106.001 904.331 106.001 906.073 110.71L910.13 121.674C910.678 123.155 911.845 124.322 913.326 124.87L924.29 128.927C928.999 130.669 928.999 137.331 924.29 139.073L913.326 143.13C911.845 143.678 910.678 144.845 910.13 146.326L906.073 157.29C904.331 161.999 897.669 161.999 895.927 157.29L891.87 146.326C891.322 144.845 890.155 143.678 888.674 143.13L877.71 139.073C873.001 137.331 873.001 130.669 877.71 128.927L888.674 124.87C890.155 124.322 891.322 123.155 891.87 121.674L895.927 110.71Z" fill="#FE86C9"/>
<path d="M803.007 10.2219C806.747 6.34179 813.284 7.96455 814.775 13.1429L840.866 103.779C842.356 108.957 837.682 113.807 832.452 112.509L740.914 89.7863C735.684 88.4881 733.821 82.0152 737.56 78.1351L803.007 10.2219Z" fill="#64BF76"/>
<path d="M201.852 332.809C202.064 327.425 208.024 324.288 212.582 327.163L257.173 355.295C261.731 358.17 261.467 364.9 256.698 367.41L210.04 391.961C205.271 394.471 199.574 390.877 199.785 385.492L201.852 332.809Z" fill="#728AE9"/>
<g filter="url(#filter2_di_619_2)">
<path d="M273.915 202.552C264.309 202.552 256.697 199.892 251.081 194.571C245.464 189.176 242.656 181.491 242.656 171.514V152.892C242.656 142.916 245.464 135.267 251.081 129.946C256.697 124.552 264.309 121.855 273.915 121.855C283.448 121.855 290.801 124.478 295.974 129.725C301.221 134.898 303.844 142.029 303.844 151.118V151.784H289.434V150.675C289.434 146.093 288.141 142.324 285.554 139.369C283.042 136.413 279.162 134.935 273.915 134.935C268.743 134.935 264.678 136.523 261.722 139.701C258.766 142.879 257.288 147.202 257.288 152.67V171.736C257.288 177.131 258.766 181.454 261.722 184.705C264.678 187.883 268.743 189.472 273.915 189.472C279.162 189.472 283.042 187.994 285.554 185.038C288.141 182.008 289.434 178.239 289.434 173.731V171.736H303.844V173.288C303.844 182.378 301.221 189.546 295.974 194.793C290.801 199.965 283.448 202.552 273.915 202.552ZM320.201 201V123.406H353.898C358.776 123.406 363.025 124.256 366.646 125.956C370.267 127.656 373.075 130.057 375.07 133.161C377.066 136.265 378.063 139.923 378.063 144.135V145.465C378.063 150.121 376.955 153.89 374.738 156.772C372.521 159.654 369.787 161.76 366.535 163.09V165.085C369.491 165.233 371.782 166.268 373.408 168.189C375.033 170.036 375.846 172.512 375.846 175.616V201H361.214V177.722C361.214 175.948 360.734 174.507 359.773 173.399C358.886 172.29 357.372 171.736 355.228 171.736H334.832V201H320.201ZM334.832 158.434H352.346C355.82 158.434 358.517 157.511 360.438 155.663C362.434 153.742 363.431 151.229 363.431 148.126V147.017C363.431 143.913 362.471 141.438 360.549 139.59C358.628 137.669 355.894 136.708 352.346 136.708H334.832V158.434ZM394.672 201V123.406H444.554V136.708H409.304V155.22H441.45V168.522H409.304V187.698H445.219V201H394.672ZM455.163 201L475.559 123.406H501.054L521.45 201H506.375L502.163 183.929H474.451L470.238 201H455.163ZM477.887 170.406H498.726L489.304 132.607H487.309L477.887 170.406ZM545.985 201V136.708H523.372V123.406H583.23V136.708H560.617V201H545.985ZM597.628 201V123.406H612.26V201H597.628ZM645.699 201L625.969 123.406H641.044L657.449 191.578H659.001L675.407 123.406H690.482L670.751 201H645.699ZM704.245 201V123.406H754.127V136.708H718.877V155.22H751.023V168.522H718.877V187.698H754.792V201H704.245ZM203.459 312V299.142H213.657V247.265H203.459V234.406H235.384C245.803 234.406 253.711 237.067 259.105 242.387C264.574 247.634 267.308 255.468 267.308 265.887V280.519C267.308 290.939 264.574 298.809 259.105 304.13C253.711 309.377 245.803 312 235.384 312H203.459ZM228.289 298.698H235.605C241.517 298.698 245.84 297.146 248.575 294.043C251.309 290.939 252.676 286.579 252.676 280.963V265.444C252.676 259.754 251.309 255.394 248.575 252.364C245.84 249.26 241.517 247.708 235.605 247.708H228.289V298.698ZM283.937 312V234.406H333.818V247.708H298.569V266.22H330.715V279.522H298.569V298.698H334.483V312H283.937ZM364.159 312L344.428 234.406H359.503L375.909 302.578H377.46L393.866 234.406H408.941L389.21 312H364.159ZM422.705 312V234.406H472.586V247.708H437.337V266.22H469.482V279.522H437.337V298.698H473.251V312H422.705ZM488.516 312V234.406H503.148V298.698H538.62V312H488.516ZM580.582 313.552C570.827 313.552 563.068 310.892 557.303 305.571C551.539 300.176 548.657 292.491 548.657 282.514V263.892C548.657 253.916 551.539 246.267 557.303 240.946C563.068 235.552 570.827 232.855 580.582 232.855C590.336 232.855 598.096 235.552 603.86 240.946C609.624 246.267 612.506 253.916 612.506 263.892V282.514C612.506 292.491 609.624 300.176 603.86 305.571C598.096 310.892 590.336 313.552 580.582 313.552ZM580.582 300.472C586.05 300.472 590.299 298.883 593.329 295.705C596.359 292.528 597.874 288.279 597.874 282.958V263.449C597.874 258.128 596.359 253.879 593.329 250.701C590.299 247.523 586.05 245.935 580.582 245.935C575.187 245.935 570.938 247.523 567.834 250.701C564.804 253.879 563.289 258.128 563.289 263.449V282.958C563.289 288.279 564.804 292.528 567.834 295.705C570.938 298.883 575.187 300.472 580.582 300.472ZM629.774 312V234.406H661.698C666.575 234.406 670.861 235.404 674.556 237.399C678.325 239.321 681.244 242.055 683.313 245.602C685.456 249.149 686.528 253.361 686.528 258.239V259.791C686.528 264.594 685.419 268.806 683.203 272.427C681.059 275.974 678.104 278.746 674.335 280.741C670.64 282.662 666.428 283.623 661.698 283.623H644.406V312H629.774ZM644.406 270.321H660.257C663.73 270.321 666.538 269.36 668.681 267.439C670.824 265.518 671.896 262.894 671.896 259.569V258.46C671.896 255.135 670.824 252.512 668.681 250.59C666.538 248.669 663.73 247.708 660.257 247.708H644.406V270.321ZM701.106 312V234.406H750.988V247.708H715.738V266.22H747.884V279.522H715.738V298.698H751.653V312H701.106ZM766.918 312V234.406H800.616C805.493 234.406 809.742 235.256 813.363 236.956C816.984 238.656 819.792 241.057 821.788 244.161C823.783 247.265 824.78 250.923 824.78 255.135V256.465C824.78 261.121 823.672 264.89 821.455 267.772C819.238 270.654 816.504 272.76 813.252 274.09V276.085C816.208 276.233 818.499 277.268 820.125 279.189C821.751 281.036 822.563 283.512 822.563 286.616V312H807.932V288.722C807.932 286.948 807.451 285.507 806.49 284.399C805.604 283.29 804.089 282.736 801.946 282.736H781.55V312H766.918ZM781.55 269.434H799.064C802.537 269.434 805.234 268.511 807.156 266.663C809.151 264.742 810.148 262.229 810.148 259.126V258.017C810.148 254.913 809.188 252.438 807.266 250.59C805.345 248.669 802.611 247.708 799.064 247.708H781.55V269.434Z" fill="white"/>
</g>
<rect x="204" y="75.7812" width="81.1149" height="82.1964" rx="7" transform="rotate(-35.2208 204 75.7812)" fill="#DA5463"/>
<circle cx="863.5" cy="333.5" r="58.5" fill="#FBBB3E"/>
</g>
<defs>
<filter id="filter0_f_619_2" x="423.102" y="384.724" width="158.316" height="88.6939" filterUnits="userSpaceOnUse" color-interpolation-filters="sRGB">
<feFlood flood-opacity="0" result="BackgroundImageFix"/>
<feBlend mode="normal" in="SourceGraphic" in2="BackgroundImageFix" result="shape"/>
<feGaussianBlur stdDeviation="13.6452" result="effect1_foregroundBlur_619_2"/>
</filter>
<filter id="filter1_f_619_2" x="79.186" y="-58.7007" width="849.508" height="809.604" filterUnits="userSpaceOnUse" color-interpolation-filters="sRGB">
<feFlood flood-opacity="0" result="BackgroundImageFix"/>
<feBlend mode="normal" in="SourceGraphic" in2="BackgroundImageFix" result="shape"/>
<feGaussianBlur stdDeviation="177.35" result="effect1_foregroundBlur_619_2"/>
</filter>
<filter id="filter2_di_619_2" x="195.559" y="113.954" width="637.121" height="207.497" filterUnits="userSpaceOnUse" color-interpolation-filters="sRGB">
<feFlood flood-opacity="0" result="BackgroundImageFix"/>
<feColorMatrix in="SourceAlpha" type="matrix" values="0 0 0 0 0 0 0 0 0 0 0 0 0 0 0 0 0 0 127 0" result="hardAlpha"/>
<feOffset/>
<feGaussianBlur stdDeviation="3.95"/>
<feComposite in2="hardAlpha" operator="out"/>
<feColorMatrix type="matrix" values="0 0 0 0 1 0 0 0 0 1 0 0 0 0 1 0 0 0 0.25 0"/>
<feBlend mode="normal" in2="BackgroundImageFix" result="effect1_dropShadow_619_2"/>
<feBlend mode="normal" in="SourceGraphic" in2="effect1_dropShadow_619_2" result="shape"/>
<feColorMatrix in="SourceAlpha" type="matrix" values="0 0 0 0 0 0 0 0 0 0 0 0 0 0 0 0 0 0 127 0" result="hardAlpha"/>
<feOffset dx="-1" dy="4"/>
<feComposite in2="hardAlpha" operator="arithmetic" k2="-1" k3="1"/>
<feColorMatrix type="matrix" values="0 0 0 0 0 0 0 0 0 0 0 0 0 0 0 0 0 0 0.06 0"/>
<feBlend mode="normal" in2="shape" result="effect2_innerShadow_619_2"/>
</filter>
<linearGradient id="paint0_linear_619_2" x1="449.506" y1="375.862" x2="449.506" y2="427.978" gradientUnits="userSpaceOnUse">
<stop stop-color="#F2F2F2"/>
<stop offset="1" stop-color="white"/>
</linearGradient>
<linearGradient id="paint1_linear_619_2" x1="449.365" y1="378.567" x2="449.365" y2="405.229" gradientUnits="userSpaceOnUse">
<stop stop-color="white"/>
<stop offset="1" stop-color="#F0F0F0"/>
</linearGradient>
<linearGradient id="paint2_linear_619_2" x1="503" y1="464" x2="503" y2="483" gradientUnits="userSpaceOnUse">
<stop stop-color="#15120F"/>
<stop offset="1"/>
</linearGradient>
<linearGradient id="paint3_linear_619_2" x1="504.637" y1="420.884" x2="504.637" y2="471.371" gradientUnits="userSpaceOnUse">
<stop stop-color="#5F5F5F"/>
<stop offset="1" stop-color="#262626"/>
</linearGradient>
<clipPath id="clip0_619_2">
<rect width="1008" height="483" rx="15" fill="white"/>
</clipPath>
<clipPath id="clip1_619_2">
<rect width="16.3742" height="16.3742" fill="white" transform="translate(494.402 437.94)"/>
</clipPath>
</defs>
</svg>
