<svg width="86" height="85" viewBox="0 0 86 85" fill="none" xmlns="http://www.w3.org/2000/svg">
<g clip-path="url(#clip0_39_9)">
<path d="M0.290048 47.0499C-0.169952 44.1799 0.0400476 41.2599 0.0900476 38.3599C0.120048 36.3799 0.590048 34.4299 1.02005 32.4899C1.53005 30.1899 2.20005 27.9299 2.92005 25.6999C3.38005 24.2899 4.20005 22.9899 4.91005 21.6699C6.26005 19.1499 8.25005 17.0699 9.88005 14.7399C11.37 12.6199 12.99 10.5699 15.45 9.43993C16.33 9.03993 16.86 8.21993 17.62 7.64993C19.08 6.54993 20.46 5.32993 22.14 4.53993C23.72 3.79993 25.37 3.20993 27 2.57993C30.16 1.36993 33.43 0.859928 36.78 0.649928C39.76 0.469928 42.71 0.0199284 45.69 -7.16146e-05C49.21 -0.0200716 52.61 0.679928 55.76 2.09993C58.36 3.26993 61.13 4.08993 63.52 5.72993C65.4 7.01993 67.29 8.30993 69.23 9.50993C71.34 10.8199 72.76 12.7799 74.35 14.5899C75.03 15.3599 75.91 15.8899 76.51 16.7699C77.43 18.1199 78.62 19.2499 79.36 20.7599C80.21 22.5099 81.42 24.0799 81.97 25.9899C82.76 28.7699 83.78 31.4799 84.31 34.3399C84.55 35.6299 85.12 36.8799 85.18 38.1699C85.26 39.8799 84.98 41.5999 84.85 43.3099C84.74 44.7899 84.6 46.2699 84.51 47.7499C84.46 48.6399 84.16 49.4299 83.84 50.2499C83.43 51.3199 83.3 52.4899 82.95 53.5899C81.77 57.3099 80.21 60.8599 78.1 64.1599C76.75 66.2799 74.91 68.0299 73.58 70.1599C72.69 71.5899 71.52 72.8199 70.33 73.9999C68.73 75.5799 66.74 76.6499 64.9 77.8899C63.25 78.9999 61.53 80.0499 59.74 80.8999C58.29 81.5899 56.7 81.9899 55.11 82.3499C51.79 83.1099 48.44 83.6699 45.08 84.1599C43.96 84.3199 42.85 84.5999 41.71 84.5499C39.2 84.4499 36.71 84.0499 34.21 83.7899C32.5 83.6099 30.83 83.2799 29.19 82.7999C28.36 82.5499 27.64 81.9599 26.85 81.5599C24.91 80.5799 22.94 79.6599 21.03 78.6399C20.06 78.1199 19.08 77.5399 18.27 76.8099C16.81 75.4699 15.37 74.0799 13.82 72.8799C11.54 71.1199 10.05 68.7399 8.15005 66.6899C6.82005 65.2499 6.15005 63.3499 5.07005 61.7299C3.30005 59.0699 2.50005 56.0199 1.58005 53.0199C1.11005 51.4899 0.790048 49.9299 0.480048 48.3599C0.390048 47.9299 0.220048 47.5199 0.290048 47.0399V47.0499ZM40.95 77.4499C42.91 77.4499 45.33 77.0999 47.76 76.8599C50.24 76.6099 52.44 75.6699 54.73 74.9399C56.66 74.3199 58.49 73.4499 60.26 72.4299C61.28 71.8399 62.58 71.6699 63.48 70.9599C66.09 68.8999 68.36 66.4799 70.38 63.8399C72.19 61.4699 73.45 58.7799 74.86 56.1799C75.83 54.3999 76.35 52.4199 77.03 50.5099C77.88 48.1099 78.31 45.6499 78.68 43.1499C78.92 41.5299 78.36 40.0199 78.12 38.4799C77.77 36.2099 77.5 33.8999 76.48 31.7799C75.36 29.4699 74.67 26.9699 73.21 24.7999C72.19 23.2799 70.92 21.9499 69.94 20.4299C68.75 18.5799 67.12 17.1999 65.55 15.7699C63.92 14.2899 62.07 13.0399 60.41 11.5899C59.36 10.6699 58.25 9.77993 57.01 9.25993C55.51 8.63993 54.02 7.93993 52.41 7.55993C50.19 7.02993 48.01 6.29993 45.69 6.29993C42.85 6.29993 40.01 5.91993 37.19 6.72993C35.14 7.31993 33.01 7.62993 30.94 8.16993C28.45 8.81993 26.34 10.2299 24.2 11.5999C22.44 12.7299 20.67 13.8399 19.24 15.3799C17.94 16.7799 16.24 17.7799 15.36 19.6199C14.84 20.7199 14.05 21.7299 13.21 22.6299C11.77 24.1799 10.51 25.8499 9.87005 27.8599C8.96005 30.7099 8.18005 33.6099 7.47005 36.5199C7.08005 38.1099 6.75005 39.7599 6.72005 41.3999C6.67005 43.6299 7.01005 45.8599 7.47005 48.0499C7.88005 49.9999 8.41005 51.9299 9.02005 53.8299C9.31005 54.7499 10 55.5399 10.31 56.4599C11.39 59.6299 13.28 62.3099 15.42 64.7999C17.1 66.7599 19.19 68.3099 21.16 69.9699C21.99 70.6699 22.81 71.4099 23.75 71.9399C25.91 73.1499 28.09 74.3299 30.35 75.3199C31.21 75.6899 32.11 76.0699 32.99 76.4199C35.43 77.3599 37.92 77.4299 40.95 77.4599V77.4499Z" fill="#030303"/>
<path d="M29.15 37.85C29.26 38.73 29.26 39.43 29.51 40.09C29.75 40.72 30.05 41.33 30.47 41.87C31.12 42.71 31.97 43.3 32.88 43.83C33.79 44.36 34.71 44.84 35.73 45.09C37.4 45.5 39.07 45.49 40.71 45.01C41.69 44.73 42.55 44.18 43.36 43.57C44.36 42.81 45.21 41.9 45.85 40.82C46.58 39.58 47.08 38.26 47 36.78C46.97 36.25 46.81 35.75 46.56 35.28C46.13 34.49 45.38 34.23 44.57 34.12C43.98 34.04 43.41 34.17 42.88 34.45C42.41 34.7 42.06 35.07 41.82 35.55C41.74 35.71 41.71 35.89 41.73 36.07C41.79 36.62 41.64 37.16 41.61 37.71C41.6 37.93 41.54 38.15 41.42 38.33C41.11 38.8 40.83 39.3 40.48 39.74C40.05 40.28 39.48 40.56 38.8 40.66C37.7 40.82 36.66 40.61 35.65 40.17C34.73 39.77 34.28 39 34.12 38.05C34.02 37.46 33.99 36.86 34 36.26C34.02 35.38 33.54 34.86 32.84 34.49C31.66 33.88 30.35 34.28 29.51 35.46C29.22 35.87 29.16 36.34 29.13 36.82C29.11 37.23 29.12 37.64 29.14 37.86L29.15 37.85Z" fill="#010101"/>
<path d="M51.7201 32.74C51.7201 34.22 51.9501 35.45 52.6401 36.56C54.1001 38.92 57.6901 38.86 59.0801 36.46C59.6401 35.49 59.9001 34.43 60.0501 33.34C60.3101 31.53 59.9401 29.8 59.4301 28.09C59.0001 26.64 57.9701 25.84 56.4701 25.62C55.8201 25.52 55.2201 25.65 54.6701 25.94C53.0701 26.78 52.1201 28.1 51.9101 29.93C51.8001 30.93 51.8001 31.93 51.7301 32.74H51.7201Z" fill="#010101"/>
<path d="M17.8601 32.6099C17.8601 33.7899 18.0101 34.8299 18.4401 35.8099C18.9701 36.9999 19.8201 37.6899 20.9601 37.8599C22.1501 38.0399 23.1801 37.6399 24.0001 36.6099C24.3401 36.1699 24.5601 35.6399 24.7301 35.0899C25.0801 33.9499 25.3101 32.7599 25.2101 31.5499C25.1101 30.2099 24.9401 28.8699 24.4701 27.6199C24.0901 26.6099 23.4201 26.0299 22.5201 25.7199C21.5901 25.4099 20.7501 25.6199 19.9601 26.2199C19.8801 26.2799 19.8101 26.3499 19.7501 26.4199C19.5601 26.6599 19.3701 26.8799 19.1701 27.0999C18.9101 27.3799 18.7401 27.7699 18.6301 28.1799C18.4501 28.8499 18.2701 29.5199 18.0801 30.1899C17.9801 30.5299 17.9501 30.8899 17.9301 31.2399C17.9001 31.7199 17.8401 32.1999 17.8601 32.5999V32.6099Z" fill="#010101"/>
</g>
<defs>
<clipPath id="clip0_39_9">
<rect width="85.2" height="84.57" fill="#18181B"/>
</clipPath>
</defs>
</svg>
