<svg width="417" height="199" viewBox="0 0 417 199"  xmlns="http://www.w3.org/2000/svg">
<path d="M207.936 11.0295C248.857 11.8013 285.141 24.6853 319 48C328.25 54.3185 337.005 61.6595 345.783 68.5525C346.641 69.0462 347.198 69.6739 347.747 70.451C373.292 97.827 395.927 126.145 406.097 163.056C407.59 168.374 409.09 173.542 408.812 178.918C408.487 185.19 405.833 192.719 399.901 196.305C393.056 200.442 377.045 195.634 370.929 174.142C356.58 123.714 336.526 90.7056 305.172 68.0218C287.562 55.2811 269.56 47.3114 248.748 42.3405C233.033 38.5319 216.822 35.7459 200.481 35.4984C148.972 34.3279 106.767 48.6256 68.7619 82.5922C60.6411 89.8501 52.3927 100.859 46.1823 109.821C42.5164 115.171 40.3122 120.349 36.7855 125.856C34.6973 129.192 32.2659 133.367 30.0194 136.865C28.5781 139.109 27.2327 140.824 24.0083 143.266C18.6409 147.33 8.01195 147.26 4.48527 141.387C0.819384 135.358 3.05815 124.884 7.26544 117.615C23.8162 88.2271 48.361 68.0465 74.0378 47.3662C81.416 41.4597 90.0007 37.8616 98.338 33.3524C125.33 18.5796 154.541 12.1569 185.005 9.99151C192.538 9.63302 200.295 10.6337 207.936 11.0295Z" fill="#18181B"/>
<path d="M186.099 137.696C169.619 137.546 158.583 126.481 158.142 109.734C157.995 102.556 162.115 98.3696 168.589 99.1172C172.415 99.5658 174.475 101.958 174.769 105.846C174.916 108.388 174.916 111.229 175.652 114.07C176.535 118.107 179.036 120.948 183.303 121.846C187.57 122.743 191.102 121.397 193.75 117.808C195.516 115.416 196.546 113.023 197.576 110.332C199.342 105.996 203.02 103.603 207.14 104.052C212.437 104.65 214.939 108.089 214.497 113.771C213.173 127.079 202.579 137.247 188.6 137.845C187.57 137.995 186.982 137.696 186.099 137.696Z" fill="#18181B"/>
<path d="M108.996 84.6129C117.089 84.6129 123.858 91.7903 123.858 100.164C123.858 108.837 116.795 115.715 108.555 115.715C100.462 115.565 93.252 108.388 93.252 100.463C93.3991 91.9398 100.756 84.3138 108.996 84.6129Z" fill="#18181B"/>
<path d="M293.954 131.565C293.954 139.789 286.597 147.266 278.651 147.266C270.706 147.266 263.79 139.789 263.643 131.714C263.643 123.042 270.411 116.163 278.946 116.163C287.186 116.014 293.954 122.892 293.954 131.565Z" fill="#18181B"/>
</svg>
