<?xml version="1.0" encoding="UTF-8"?>
<svg id="Layer_2" data-name="Layer 2" xmlns="http://www.w3.org/2000/svg" viewBox="0 0 85.2 84.57">
  <defs>
    <style>
      .cls-1 {
        fill: #18181B;
      }

      .cls-2 {
        fill: #18181B;
      }
    </style>
  </defs>
  <g id="Layer_1-2" data-name="Layer 1">
    <g>
      <path class="cls-2" d="M.29,47.05c-.46-2.87-.25-5.79-.2-8.69,.03-1.98,.5-3.93,.93-5.87,.51-2.3,1.18-4.56,1.9-6.79,.46-1.41,1.28-2.71,1.99-4.03,1.35-2.52,3.34-4.6,4.97-6.93,1.49-2.12,3.11-4.17,5.57-5.3,.88-.4,1.41-1.22,2.17-1.79,1.46-1.1,2.84-2.32,4.52-3.11,1.58-.74,3.23-1.33,4.86-1.96,3.16-1.21,6.43-1.72,9.78-1.93C39.76,.47,42.71,.02,45.69,0c3.52-.02,6.92,.68,10.07,2.1,2.6,1.17,5.37,1.99,7.76,3.63,1.88,1.29,3.77,2.58,5.71,3.78,2.11,1.31,3.53,3.27,5.12,5.08,.68,.77,1.56,1.3,2.16,2.18,.92,1.35,2.11,2.48,2.85,3.99,.85,1.75,2.06,3.32,2.61,5.23,.79,2.78,1.81,5.49,2.34,8.35,.24,1.29,.81,2.54,.87,3.83,.08,1.71-.2,3.43-.33,5.14-.11,1.48-.25,2.96-.34,4.44-.05,.89-.35,1.68-.67,2.5-.41,1.07-.54,2.24-.89,3.34-1.18,3.72-2.74,7.27-4.85,10.57-1.35,2.12-3.19,3.87-4.52,6-.89,1.43-2.06,2.66-3.25,3.84-1.6,1.58-3.59,2.65-5.43,3.89-1.65,1.11-3.37,2.16-5.16,3.01-1.45,.69-3.04,1.09-4.63,1.45-3.32,.76-6.67,1.32-10.03,1.81-1.12,.16-2.23,.44-3.37,.39-2.51-.1-5-.5-7.5-.76-1.71-.18-3.38-.51-5.02-.99-.83-.25-1.55-.84-2.34-1.24-1.94-.98-3.91-1.9-5.82-2.92-.97-.52-1.95-1.1-2.76-1.83-1.46-1.34-2.9-2.73-4.45-3.93-2.28-1.76-3.77-4.14-5.67-6.19-1.33-1.44-2-3.34-3.08-4.96-1.77-2.66-2.57-5.71-3.49-8.71-.47-1.53-.79-3.09-1.1-4.66-.09-.43-.26-.84-.19-1.32Zm40.66,30.4c1.96,0,4.38-.35,6.81-.59,2.48-.25,4.68-1.19,6.97-1.92,1.93-.62,3.76-1.49,5.53-2.51,1.02-.59,2.32-.76,3.22-1.47,2.61-2.06,4.88-4.48,6.9-7.12,1.81-2.37,3.07-5.06,4.48-7.66,.97-1.78,1.49-3.76,2.17-5.67,.85-2.4,1.28-4.86,1.65-7.36,.24-1.62-.32-3.13-.56-4.67-.35-2.27-.62-4.58-1.64-6.7-1.12-2.31-1.81-4.81-3.27-6.98-1.02-1.52-2.29-2.85-3.27-4.37-1.19-1.85-2.82-3.23-4.39-4.66-1.63-1.48-3.48-2.73-5.14-4.18-1.05-.92-2.16-1.81-3.4-2.33-1.5-.62-2.99-1.32-4.6-1.7-2.22-.53-4.4-1.26-6.72-1.26-2.84,0-5.68-.38-8.5,.43-2.05,.59-4.18,.9-6.25,1.44-2.49,.65-4.6,2.06-6.74,3.43-1.76,1.13-3.53,2.24-4.96,3.78-1.3,1.4-3,2.4-3.88,4.24-.52,1.1-1.31,2.11-2.15,3.01-1.44,1.55-2.7,3.22-3.34,5.23-.91,2.85-1.69,5.75-2.4,8.66-.39,1.59-.72,3.24-.75,4.88-.05,2.23,.29,4.46,.75,6.65,.41,1.95,.94,3.88,1.55,5.78,.29,.92,.98,1.71,1.29,2.63,1.08,3.17,2.97,5.85,5.11,8.34,1.68,1.96,3.77,3.51,5.74,5.17,.83,.7,1.65,1.44,2.59,1.97,2.16,1.21,4.34,2.39,6.6,3.38,.86,.37,1.76,.75,2.64,1.1,2.44,.94,4.93,1.01,7.96,1.04Z"/>
      <path class="cls-1" d="M29.15,37.85c.11,.88,.11,1.58,.36,2.24,.24,.63,.54,1.24,.96,1.78,.65,.84,1.5,1.43,2.41,1.96,.91,.53,1.83,1.01,2.85,1.26,1.67,.41,3.34,.4,4.98-.08,.98-.28,1.84-.83,2.65-1.44,1-.76,1.85-1.67,2.49-2.75,.73-1.24,1.23-2.56,1.15-4.04-.03-.53-.19-1.03-.44-1.5-.43-.79-1.18-1.05-1.99-1.16-.59-.08-1.16,.05-1.69,.33-.47,.25-.82,.62-1.06,1.1-.08,.16-.11,.34-.09,.52,.06,.55-.09,1.09-.12,1.64-.01,.22-.07,.44-.19,.62-.31,.47-.59,.97-.94,1.41-.43,.54-1,.82-1.68,.92-1.1,.16-2.14-.05-3.15-.49-.92-.4-1.37-1.17-1.53-2.12-.1-.59-.13-1.19-.12-1.79,.02-.88-.46-1.4-1.16-1.77-1.18-.61-2.49-.21-3.33,.97-.29,.41-.35,.88-.38,1.36-.02,.41-.01,.82,.01,1.04Z"/>
      <path class="cls-1" d="M51.72,32.74c0,1.48,.23,2.71,.92,3.82,1.46,2.36,5.05,2.3,6.44-.1,.56-.97,.82-2.03,.97-3.12,.26-1.81-.11-3.54-.62-5.25-.43-1.45-1.46-2.25-2.96-2.47-.65-.1-1.25,.03-1.8,.32-1.6,.84-2.55,2.16-2.76,3.99-.11,1-.11,2-.18,2.81Z"/>
      <path class="cls-1" d="M17.86,32.61c0,1.18,.15,2.22,.58,3.2,.53,1.19,1.38,1.88,2.52,2.05,1.19,.18,2.22-.22,3.04-1.25,.34-.44,.56-.97,.73-1.52,.35-1.14,.58-2.33,.48-3.54-.1-1.34-.27-2.68-.74-3.93-.38-1.01-1.05-1.59-1.95-1.9-.93-.31-1.77-.1-2.56,.5-.08,.06-.15,.13-.21,.2-.19,.24-.38,.46-.58,.68-.26,.28-.43,.67-.54,1.08-.18,.67-.36,1.34-.55,2.01-.1,.34-.13,.7-.15,1.05-.03,.48-.09,.96-.07,1.36Z"/>
    </g>
  </g>
</svg>